<svg width="38" height="57" viewBox="0 0 38 57" fill="none" xmlns="http://www.w3.org/2000/svg">
<path d="M9.50002 57C14.744 57 19 52.744 19 47.5V38H9.50002C4.25601 38 0 42.256 0 47.5C0 52.744 4.25601 57 9.50002 57Z" fill="#0ACF83"/>
<path d="M0 28.5C0 23.256 4.25601 19 9.50002 19H19V38H9.50002C4.25601 38 0 33.744 0 28.5Z" fill="#A259FF"/>
<path d="M0 9.50002C0 4.25601 4.25601 0 9.50002 0H19V19H9.50002C4.25601 19 0 14.744 0 9.50002Z" fill="#F24E1E"/>
<path d="M19 0H28.5C33.744 0 38 4.25601 38 9.50002C38 14.744 33.744 19 28.5 19H19V0Z" fill="#FF7262"/>
<path d="M38 28.5C38 33.744 33.744 38 28.5 38C23.256 38 19 33.744 19 28.5C19 23.256 23.256 19 28.5 19C33.744 19 38 23.256 38 28.5Z" fill="#1ABCFE"/>
</svg>
