<svg width="72" height="72" viewBox="0 0 72 72" fill="none" xmlns="http://www.w3.org/2000/svg">
<rect width="72" height="72" fill="#6A8BFF"/>
<path fill-rule="evenodd" clip-rule="evenodd" d="M27.5884 29.4778H44.5132C49.2281 29.4778 53.0508 33.2162 53.0508 37.8271V47.7008C53.0508 52.3117 49.2281 56.0501 44.5132 56.0501H27.5884C22.8735 56.0501 19.0508 52.3117 19.0508 47.7008V37.8271C19.0508 33.2162 22.8735 29.4778 27.5884 29.4778ZM36.0406 46.7094C37.0365 46.7094 37.829 45.9343 37.829 44.9605V40.5483C37.829 39.5943 37.0365 38.8192 36.0406 38.8192C35.0651 38.8192 34.2726 39.5943 34.2726 40.5483V44.9605C34.2726 45.9343 35.0651 46.7094 36.0406 46.7094Z" fill="white"/>
<path opacity="0.4" d="M47.0967 26.842V29.7834C46.3854 29.5846 45.6335 29.4853 44.8612 29.4853H43.5402V26.842C43.5402 22.8074 40.187 19.5281 36.0614 19.5281C31.9359 19.5281 28.5827 22.7875 28.5623 26.8022V29.4853H27.2617C26.4691 29.4853 25.7172 29.5846 25.0059 29.8033V26.842C25.0262 20.8796 29.9646 16.05 36.0208 16.05C42.1583 16.05 47.0967 20.8796 47.0967 26.842" fill="white"/>
</svg>
