<svg width="56" height="56" viewBox="0 0 56 56" fill="none" xmlns="http://www.w3.org/2000/svg">
<rect width="56" height="56" fill="#94AAF6"/>
<path d="M25.758 15.6886C25.8474 15.8705 25.9065 16.0654 25.9329 16.2657L26.4216 23.5321V23.5321L26.6642 27.1844C26.6667 27.56 26.7257 27.9332 26.8391 28.2919C27.1321 28.9879 27.8369 29.4302 28.6038 29.3994L40.2887 28.6351C40.7947 28.6267 41.2833 28.816 41.6471 29.1612C41.9502 29.4488 42.1459 29.8251 42.2075 30.2299L42.2282 30.4756C41.7447 37.1713 36.8271 42.7559 30.1454 44.1975C23.4636 45.6392 16.6118 42.5938 13.31 36.7149C12.3581 35.007 11.7636 33.1296 11.5612 31.1932C11.4767 30.6199 11.4395 30.0409 11.45 29.4618C11.4395 22.2833 16.5515 16.0772 23.7072 14.5811C24.5685 14.447 25.4127 14.9029 25.758 15.6886Z" fill="white"/>
<path opacity="0.4" d="M30.5269 9.44919C38.5305 9.65281 45.2572 15.4081 46.552 23.16L46.5396 23.2172V23.2172L46.5043 23.3004L46.5092 23.5287C46.4909 23.8312 46.3741 24.1223 46.1728 24.3574C45.9631 24.6023 45.6767 24.769 45.3612 24.8338L45.1689 24.8602L31.6875 25.7337C31.239 25.7779 30.7926 25.6333 30.4591 25.3358C30.1812 25.088 30.0035 24.7534 29.9533 24.3928L29.0484 10.931C29.0327 10.8855 29.0327 10.8362 29.0484 10.7906C29.0608 10.4196 29.2241 10.0688 29.502 9.81675C29.7798 9.56469 30.1489 9.43231 30.5269 9.44919Z" fill="white"/>
</svg>
