<svg width="72" height="72" viewBox="0 0 72 72" fill="none" xmlns="http://www.w3.org/2000/svg">
<rect width="72" height="72" fill="#9663FF"/>
<path d="M36.2388 57.8987C35.9683 57.8987 35.6977 57.8366 35.4536 57.7102L27.5857 53.6374C25.3531 52.4804 23.6066 51.1821 22.2429 49.6695C19.2581 46.3616 17.5974 42.1152 17.571 37.7104L17.4786 23.2124C17.4676 21.5391 18.5476 20.0373 20.1621 19.4716L34.609 14.4347C35.4668 14.1284 36.4236 14.1241 37.2968 14.4197L51.7987 19.2853C53.422 19.8273 54.5196 21.3184 54.5284 22.9896L54.6208 37.4983C54.6494 41.8967 53.0459 46.1602 50.1072 49.5046C48.7589 51.0386 47.0278 52.3562 44.8172 53.5345L37.0197 57.6995C36.7777 57.8301 36.5094 57.8966 36.2388 57.8987" fill="white"/>
<path d="M34.5622 41.1209C34.1399 41.123 33.7175 40.9709 33.392 40.6581L29.204 36.6303C28.5573 36.0047 28.5507 34.9891 29.1908 34.3593C29.8309 33.7272 30.8757 33.7208 31.5246 34.3443L34.538 37.2409L41.8956 29.9865C42.5379 29.3545 43.5827 29.3481 44.2294 29.9715C44.8782 30.5971 44.8848 31.6148 44.2448 32.2425L35.7258 40.6431C35.4046 40.9602 34.9845 41.1187 34.5622 41.1209" fill="#9663FF"/>
</svg>
