<svg width="72" height="72" viewBox="0 0 72 72" fill="none" xmlns="http://www.w3.org/2000/svg">
<rect width="72" height="72" fill="#AB49DB"/>
<path opacity="0.6" d="M36.189 57.8487C35.9185 57.8487 35.6479 57.7865 35.4038 57.6601L27.5359 53.5873C25.3033 52.4304 23.5568 51.1321 22.1931 49.6195C19.2083 46.3115 17.5476 42.0652 17.5212 37.6603L17.4288 23.1623C17.4178 21.4891 18.4978 19.9872 20.1123 19.4216L34.5591 14.3847C35.417 14.0783 36.3738 14.074 37.247 14.3697L51.7489 19.2352C53.3722 19.7772 54.4698 21.2684 54.4786 22.9395L54.571 37.4482C54.5995 41.8467 52.9961 46.1102 50.0574 49.4545C48.7091 50.9885 46.978 52.3061 44.7674 53.4845L36.9699 57.6494C36.7279 57.7801 36.4596 57.8465 36.189 57.8487" fill="white"/>
<path d="M34.5115 41.0708C34.0892 41.0729 33.6669 40.9208 33.3414 40.608L29.1533 36.5802C28.5067 35.9546 28.5001 34.9391 29.1401 34.3092C29.7802 33.6772 30.825 33.6708 31.4739 34.2942L34.4873 37.1908L41.8449 29.9365C42.4872 29.3044 43.532 29.298 44.1787 29.9215C44.8276 30.5471 44.8342 31.5647 44.1941 32.1925L35.6751 40.593C35.354 40.9101 34.9338 41.0687 34.5115 41.0708" fill="white"/>
</svg>
