<svg width="72" height="72" viewBox="0 0 72 72" fill="none" xmlns="http://www.w3.org/2000/svg">
<rect width="72" height="72" fill="#EA4E7F"/>
<path opacity="0.4" d="M37.7255 46.2581C37.7255 47.2581 38.547 48.0676 39.5619 48.0676L48.4331 48.5664C49.7264 48.5664 50.7735 47.5324 50.7735 46.2581C50.7735 44.9837 49.7264 43.952 48.4331 43.952L39.5619 44.4486C38.547 44.4486 37.7255 45.2581 37.7255 46.2581" fill="white"/>
<path d="M19.8673 43.788C19.8673 43.788 19.3334 44.3073 19.101 44.6293C18.742 45.0964 18.5625 45.6723 18.5625 46.246C18.5625 46.89 18.765 47.4886 19.147 47.9761C19.2368 48.0646 19.575 48.441 19.8903 48.7516C21.7336 50.7017 26.5455 53.8921 29.0654 54.8671C29.4474 55.0213 30.4139 55.3546 30.9317 55.375C31.4241 55.375 31.8982 55.2662 32.3469 55.0439C32.9084 54.7333 33.3595 54.2458 33.6057 53.6698C33.7645 53.2708 34.0107 52.0758 34.0107 52.0531C34.2593 50.7448 34.3927 48.6178 34.3927 46.2687C34.3927 44.0307 34.2593 41.9922 34.0568 40.6634C34.0337 40.6407 33.7875 39.1578 33.516 38.6476C33.0212 37.7179 32.0547 37.1397 31.0214 37.1397H30.9317C30.2574 37.1624 28.8398 37.7406 28.8398 37.761C26.4558 38.736 21.7566 41.7722 19.8673 43.788" fill="white"/>
<path opacity="0.4" d="M34.2749 25.7415C34.2749 24.7416 33.4533 23.9321 32.4385 23.9321L23.567 23.4355C22.2736 23.4355 21.2266 24.4672 21.2266 25.7415C21.2266 27.0159 22.2736 28.0499 23.567 28.0499L32.4385 27.551C33.4533 27.551 34.2749 26.7415 34.2749 25.7415" fill="white"/>
<path d="M39.6525 16.9561C39.091 17.2667 38.6423 17.7542 38.3937 18.3302C38.2349 18.7292 37.9887 19.9265 37.9887 19.9469C37.7402 21.2552 37.6067 23.3822 37.6067 25.7313C37.6067 27.9693 37.7402 30.0078 37.9427 31.3366C37.9657 31.3593 38.2142 32.8422 38.4835 33.3524C38.9783 34.2843 39.9448 34.8603 40.9804 34.8603H41.0701C41.7444 34.8376 43.1597 34.2617 43.1597 34.239C45.5438 33.264 50.2454 30.23 52.1324 28.212C52.1324 28.212 52.6663 27.6927 52.8965 27.3707C53.2578 26.9059 53.4373 26.3299 53.4373 25.7517C53.4373 25.11 53.2348 24.5137 52.8527 24.0239C52.763 23.9354 52.4247 23.559 52.1117 23.2484C50.2661 21.3006 45.4541 18.1079 42.9365 17.1352C42.5545 16.9787 41.5856 16.6454 41.0701 16.625C40.5754 16.625 40.1013 16.7338 39.6525 16.9561" fill="white"/>
</svg>
