<svg width="72" height="72" viewBox="0 0 72 72" fill="none" xmlns="http://www.w3.org/2000/svg">
<rect width="72" height="72" fill="#FB5FBC"/>
<path fill-rule="evenodd" clip-rule="evenodd" d="M55.9929 28.7503H47.5236C43.5822 28.7572 40.3893 31.8703 40.3822 35.7131C40.3769 39.5646 43.5733 42.6916 47.5236 42.6968H56V43.3087C56 50.0272 51.9271 54 45.0347 54H26.9671C20.0729 54 16 50.0272 16 43.3087V28.6757C16 21.9572 20.0729 18 26.9671 18H45.0276C51.92 18 55.9929 21.9572 55.9929 28.6757V28.7503ZM25.4791 28.7348H36.7591H36.7662H36.7804C37.6249 28.7313 38.3076 28.0605 38.304 27.2354C38.3004 26.4121 37.6107 25.7464 36.7662 25.7499H25.4791C24.64 25.7534 23.9591 26.4173 23.9556 27.2371C23.952 28.0605 24.6347 28.7313 25.4791 28.7348Z" fill="white"/>
<path opacity="0.4" d="M44.0748 36.5938C44.4931 38.4961 46.161 39.8346 48.0652 39.7998H54.565C55.3573 39.7998 56 39.1436 56 38.3325V33.2694C55.9983 32.4601 55.3573 31.8022 54.565 31.8004H47.9122C45.7461 31.8074 43.9966 33.6053 44 35.821C44 36.0803 44.0255 36.3396 44.0748 36.5938" fill="white"/>
<circle cx="48" cy="35.8004" r="2" fill="white"/>
</svg>
