<svg width="72" height="72" viewBox="0 0 72 72" fill="none" xmlns="http://www.w3.org/2000/svg">
<rect width="72" height="72" fill="#7F72FF"/>
<path fill-rule="evenodd" clip-rule="evenodd" d="M47.1718 14.3987C50.1406 14.3987 52.9964 15.572 55.0973 17.6773C57.1888 19.7667 58.363 22.5807 58.3759 25.5294H14.0997C14.1261 19.3754 19.117 14.3987 25.3015 14.3987H47.1718ZM14.0996 31.2148V43.0676C14.0996 49.2442 19.1228 54.2474 25.3015 54.2474H47.1718C53.3506 54.2474 58.376 49.2442 58.376 43.0676V25.5785C58.376 25.5716 58.376 25.5647 58.3759 25.5578V31.2148H14.0996Z" fill="white"/>
<path d="M54.421 59.4688L54.7763 59.5403L55.1317 59.4688C56.6293 59.1679 58.8995 58.0693 60.8047 56.1372C62.7611 54.1532 64.3992 51.2203 64.3992 47.2744V44.142C64.3992 42.81 63.6138 41.6063 62.4013 41.0655L62.3993 41.0646L56.1438 38.2841L56.1402 38.2825C55.2726 37.8991 54.2786 37.8983 53.4082 38.286C53.4078 38.2861 53.4075 38.2863 53.4072 38.2864L47.1552 41.0654C47.1548 41.0656 47.1545 41.0657 47.1541 41.0659C45.9381 41.6054 45.1535 42.8112 45.1535 44.142V47.2744C45.1535 51.2203 46.7916 54.1532 48.748 56.1372C50.6532 58.0693 52.9234 59.1679 54.421 59.4688Z" fill="#7E72F0" stroke="#7F72FF" stroke-width="3.60698"/>
<path opacity="0.4" d="M54.1414 39.9337L47.886 42.7142C47.3214 42.9644 46.957 43.5243 46.957 44.142V47.2744C46.957 54.0772 52.551 57.2535 54.7763 57.7007C57.0017 57.2535 62.5957 54.0772 62.5957 47.2744V44.142C62.5957 43.5243 62.2313 42.9644 61.6667 42.7126L55.4113 39.9321C55.0078 39.7538 54.5449 39.7538 54.1414 39.9337Z" fill="white"/>
</svg>
