<svg width="72" height="72" viewBox="0 0 72 72" fill="none" xmlns="http://www.w3.org/2000/svg">
<rect width="72" height="72" fill="#857DFE"/>
<path d="M58.3202 44.7742H56.6462C56.4982 44.7742 56.3563 44.7154 56.2517 44.6107C56.147 44.5061 56.0882 44.3642 56.0882 44.2162V21.7111C56.0865 20.1329 55.4587 18.6198 54.3428 17.5039C53.2268 16.3879 51.7137 15.7602 50.1355 15.7584H21.8653C20.2869 15.7596 18.7735 16.3871 17.6574 17.5032C16.5413 18.6193 15.9138 20.1327 15.9126 21.7111V44.2162C15.9126 44.3642 15.8538 44.5061 15.7491 44.6107C15.6445 44.7154 15.5026 44.7742 15.3546 44.7742H13.6806C13.0816 44.7737 12.4935 44.934 11.9776 45.2382C11.4616 45.5424 11.0367 45.9795 10.7472 46.5038C10.4577 47.0281 10.3141 47.6205 10.3315 48.2193C10.3489 48.818 10.5265 49.4011 10.846 49.9077C12.0037 51.758 13.6142 53.2824 15.5252 54.3369C17.4361 55.3914 19.5845 55.9411 21.7671 55.9341H50.2337C52.416 55.9412 54.5641 55.3915 56.4747 54.3369C58.3853 53.2824 59.9954 51.758 61.1526 49.9077C61.4719 49.4012 61.6496 48.8183 61.6671 48.2198C61.6845 47.6213 61.5412 47.0291 61.2519 46.5048C60.9627 45.9805 60.5381 45.5434 60.0225 45.239C59.5068 44.9346 58.919 44.7741 58.3202 44.7742ZM21.8653 20.2224H50.1355C50.5304 20.2224 50.909 20.3792 51.1882 20.6584C51.4674 20.9376 51.6243 21.3163 51.6243 21.7111V44.2162C51.6243 44.3642 51.5655 44.5061 51.4608 44.6107C51.3562 44.7154 51.2143 44.7742 51.0663 44.7742H45.5086C44.8876 44.7763 44.2792 44.95 43.7506 45.2762C43.222 45.6023 42.7938 46.0681 42.5133 46.6222C41.7266 47.5602 40.7206 48.2897 39.5845 48.746C38.4485 49.2023 37.2174 49.3713 36.0004 49.2381C34.7836 49.3712 33.5528 49.2023 32.4168 48.7464C31.2809 48.2906 30.2747 47.5618 29.4875 46.6245C29.2114 46.0667 28.7843 45.5975 28.2548 45.2704C27.7252 44.9433 27.1146 44.7714 26.4922 44.7742H20.9345C20.7865 44.7742 20.6446 44.7154 20.54 44.6107C20.4353 44.5061 20.3765 44.3642 20.3765 44.2162V21.7111C20.3765 21.3163 20.5334 20.9376 20.8126 20.6584C21.0918 20.3792 21.4704 20.2224 21.8653 20.2224V20.2224Z" fill="white"/>
</svg>
