<svg width="65" height="65" viewBox="0 0 65 65" fill="none" xmlns="http://www.w3.org/2000/svg">
<rect width="65" height="65" fill="#F563D3"/>
<path opacity="0.4" d="M36.4722 21.8054C35.6902 21.6609 34.972 22.16 34.8231 22.9234C34.6742 23.6867 35.1748 24.432 35.9356 24.5814C38.2261 25.028 39.9947 26.801 40.4429 29.0993V29.1009C40.5705 29.7625 41.153 30.2435 41.8238 30.2435C41.9137 30.2435 42.0037 30.2353 42.0953 30.2189C42.8561 30.0662 43.3567 29.3225 43.2079 28.5575C42.5387 25.1248 39.8965 22.4735 36.4722 21.8054" fill="white"/>
<path opacity="0.4" d="M36.3691 16.0852C36.0027 16.0327 35.6346 16.141 35.3417 16.3741C35.0407 16.6105 34.8525 16.952 34.8116 17.3345C34.7249 18.1077 35.2828 18.8071 36.055 18.8941C41.3804 19.4884 45.5196 23.6368 46.1184 28.9788C46.1985 29.6946 46.799 30.2347 47.5156 30.2347C47.5696 30.2347 47.6219 30.2314 47.6759 30.2248C48.0506 30.1838 48.3843 29.9983 48.6199 29.7028C48.8539 29.4073 48.9602 29.0395 48.9177 28.6636C48.1716 21.9985 43.0132 16.8256 36.3691 16.0852" fill="white"/>
<path fill-rule="evenodd" clip-rule="evenodd" d="M30.9095 34.0975C37.4627 40.6489 38.9493 33.0696 43.1218 37.2392C47.1444 41.2606 49.4563 42.0663 44.3598 47.1615C43.7214 47.6745 39.6653 53.8468 25.4109 39.5963C11.1546 25.3441 17.3234 21.2838 17.8366 20.6456C22.9455 15.5364 23.7373 17.8618 27.7598 21.8833C31.9323 26.0546 24.3563 27.5461 30.9095 34.0975Z" fill="white"/>
</svg>
