<svg width="65" height="65" viewBox="0 0 65 65" fill="none" xmlns="http://www.w3.org/2000/svg">
<rect width="65" height="65" fill="#9570FF"/>
<path opacity="0.4" d="M48.928 38.973C48.928 43.5564 45.2481 47.2691 40.6648 47.2855H40.6483H24.3683C19.8014 47.2855 16.0723 43.5893 16.0723 39.0059V38.9895C16.0723 38.9895 16.0821 31.7185 16.0953 28.0617C16.0969 27.375 16.8854 26.9906 17.4226 27.4177C21.3259 30.5143 28.3061 36.1606 28.3932 36.2345C29.5595 37.1693 31.038 37.6966 32.5494 37.6966C34.0608 37.6966 35.5393 37.1693 36.7057 36.2165C36.7927 36.159 43.6169 30.6819 47.5793 27.5343C48.1181 27.1056 48.9099 27.49 48.9116 28.175C48.928 31.8039 48.928 38.973 48.928 38.973" fill="white"/>
<path d="M48.0689 22.1072C46.6462 19.4262 43.8469 17.7144 40.7651 17.7144H24.3701C21.2882 17.7144 18.4889 19.4262 17.0662 22.1072C16.7475 22.7068 16.8987 23.4543 17.4293 23.8781L29.627 33.6347C30.4812 34.3246 31.5162 34.668 32.5511 34.668C32.5577 34.668 32.5626 34.668 32.5676 34.668C32.5725 34.668 32.5791 34.668 32.584 34.668C33.6189 34.668 34.6539 34.3246 35.5081 33.6347L47.7058 23.8781C48.2364 23.4543 48.3876 22.7068 48.0689 22.1072" fill="white"/>
</svg>
