<svg width="72" height="72" viewBox="0 0 72 72" fill="none" xmlns="http://www.w3.org/2000/svg">
<rect width="72" height="72" fill="#677FFD"/>
<path d="M56.0507 36.0497C56.0507 47.0977 47.0967 56.0497 36.0507 56.0497C25.0048 56.0497 16.0508 47.0977 16.0508 36.0497C16.0508 25.0058 25.0048 16.0498 36.0507 16.0498C47.0967 16.0498 56.0507 25.0058 56.0507 36.0497" fill="white"/>
<path d="M43.1976 43.6788C42.9356 43.6788 42.6716 43.6108 42.4296 43.4688L34.5777 38.7848C34.1257 38.5128 33.8477 38.0228 33.8477 37.4948V27.4009C33.8477 26.5729 34.5197 25.9009 35.3477 25.9009C36.1756 25.9009 36.8476 26.5729 36.8476 27.4009V36.6428L43.9676 40.8888C44.6776 41.3148 44.9116 42.2348 44.4876 42.9468C44.2056 43.4168 43.7076 43.6788 43.1976 43.6788" fill="#677FFD"/>
</svg>
