<svg width="72" height="72" viewBox="0 0 72 72" fill="none" xmlns="http://www.w3.org/2000/svg">
<rect width="72" height="72" fill="#FC66AE"/>
<path d="M20.0222 33.5067C20.175 33.9242 20.4871 34.2642 20.8902 34.4518C21.1166 34.5606 21.3643 34.618 21.6154 34.6197C21.8078 34.6196 21.9986 34.5861 22.1795 34.5207L24.5417 33.6745C24.7785 33.5925 24.9928 33.4562 25.1677 33.2767C25.3426 33.0972 25.4731 32.8793 25.549 32.6404L26.1533 30.0013C26.1686 29.9316 26.2014 29.867 26.2485 29.8135C26.2957 29.76 26.3557 29.7194 26.4229 29.6956C26.4901 29.6717 26.5623 29.6654 26.6326 29.6772C26.7029 29.6889 26.7691 29.7184 26.8249 29.7629L28.9637 31.4216C29.1744 31.5593 29.4147 31.6455 29.665 31.6729C29.9153 31.7003 30.1686 31.6683 30.4041 31.5794L34.4216 30.1423C34.5267 30.1056 34.642 30.1118 34.7426 30.1595C34.8432 30.2073 34.9209 30.2928 34.9588 30.3975L38.7463 40.9926C38.767 41.0499 38.775 41.1111 38.7696 41.1719C38.7642 41.2327 38.7455 41.2915 38.715 41.3443C38.6844 41.3971 38.6427 41.4425 38.5927 41.4775C38.5427 41.5124 38.4857 41.536 38.4256 41.5466C36.6014 41.7706 34.8471 42.3858 33.2825 43.35C31.7179 44.3143 30.3799 45.6049 29.3599 47.1338C29.3305 47.1857 29.3126 47.2434 29.3074 47.3029C29.3022 47.3624 29.3098 47.4223 29.3296 47.4786C29.3495 47.535 29.3812 47.5864 29.4227 47.6294C29.4641 47.6724 29.5142 47.706 29.5698 47.7281C29.8283 47.8362 30.1054 47.8932 30.3857 47.8959C30.9839 47.8351 31.5638 47.6553 32.0915 47.367C32.6191 47.0787 33.0837 46.6877 33.4579 46.2171C33.8549 45.7016 34.3628 45.282 34.9441 44.9897C35.5254 44.6973 36.165 44.5396 36.8156 44.5282C37.6061 44.5283 38.3806 44.7513 39.0502 45.1714C39.7198 45.5916 40.2574 46.192 40.6014 46.9037L40.6215 46.9407C40.7914 47.2258 41.0305 47.4634 41.3166 47.6316C41.6027 47.7997 41.9266 47.8929 42.2584 47.9027C42.7145 47.8797 43.1593 47.753 43.559 47.5322C43.9588 47.3114 44.3029 47.0023 44.5651 46.6284C44.9263 46 45.4441 45.4758 46.0681 45.1069C46.692 44.738 47.4009 44.5371 48.1256 44.5235C48.8504 44.51 49.5662 44.6844 50.2035 45.0297C50.8408 45.3751 51.3779 45.8796 51.7622 46.4941L51.7824 46.5227C51.8949 46.6737 52.924 48.0336 53.9095 47.8825C54.4786 47.8099 55.0565 47.8562 55.6068 48.0185C55.67 48.0372 55.7367 48.0408 55.8016 48.0289C55.8664 48.0171 55.9275 47.9901 55.98 47.9502C56.0325 47.9103 56.0748 47.8586 56.1036 47.7993C56.1324 47.74 56.1468 47.6748 56.1457 47.6089V42.0687C56.1457 41.8461 56.0572 41.6326 55.8998 41.4752C55.7424 41.3177 55.5289 41.2293 55.3063 41.2293H42.6932C42.6067 41.2294 42.5223 41.2026 42.4516 41.1527C42.3809 41.1028 42.3275 41.0322 42.2987 40.9506L38.1167 29.2592C38.0796 29.1544 38.0856 29.0391 38.1335 28.9386C38.1813 28.8382 38.2671 28.7609 38.3719 28.7237L42.4011 27.2832C42.6379 27.2012 42.8523 27.0649 43.0271 26.8854C43.202 26.7058 43.3326 26.488 43.4084 26.2491L44.0111 23.6099C44.0272 23.5412 44.0602 23.4776 44.1071 23.4248C44.154 23.3721 44.2133 23.3318 44.2797 23.3078C44.346 23.284 44.4173 23.2774 44.4868 23.2885C44.5564 23.2997 44.622 23.3283 44.6776 23.3716L46.8181 25.0319C47.0294 25.1677 47.2693 25.2527 47.5189 25.28C47.7686 25.3074 48.0212 25.2765 48.2568 25.1897L50.6274 24.3402C51.0461 24.1903 51.3883 23.8804 51.5787 23.4784C51.7691 23.0765 51.7923 22.6154 51.6431 22.1964L51.3593 21.404C50.7687 19.8105 49.7535 18.4088 48.4237 17.3507C47.0939 16.2925 45.5001 15.6181 43.8147 15.4005C40.4799 14.8812 37.0704 15.1374 33.8508 16.1492C33.7493 16.1766 33.6412 16.1648 33.548 16.1163C33.4547 16.0678 33.383 15.9861 33.3471 15.8873L32.8905 14.6416C32.7308 14.2356 32.4193 13.9077 32.022 13.7274C31.6247 13.547 31.1729 13.5285 30.7621 13.6756C30.3514 13.8227 30.014 14.1239 29.8215 14.5154C29.6291 14.907 29.5966 15.3581 29.7309 15.7732L30.1758 17.0172C30.2115 17.1176 30.2078 17.2279 30.1654 17.3257C30.123 17.4235 30.0452 17.5016 29.9475 17.5443C26.817 18.8059 24.0185 20.7704 21.7682 23.2859C20.6032 24.5225 19.7984 26.054 19.441 27.715C19.0835 29.3759 19.187 31.1029 19.7402 32.7092L20.0222 33.5067Z" fill="white"/>
<path opacity="0.4" d="M18.2318 53.8206C17.9231 53.8201 17.6147 53.7999 17.3085 53.7601C16.867 53.7011 16.4671 53.4692 16.1966 53.1153C15.9262 52.7614 15.8074 52.3146 15.8664 51.8731C15.9254 51.4316 16.1573 51.0317 16.5112 50.7612C16.8651 50.4908 17.3119 50.372 17.7534 50.431C20.5637 50.797 23.0971 47.6995 23.1256 47.671C23.3006 47.4715 23.5187 47.3144 23.7634 47.2117C24.008 47.1089 24.2728 47.0632 24.5378 47.0779C24.8028 47.0926 25.0609 47.1674 25.2927 47.2966C25.5244 47.4259 25.7238 47.6061 25.8756 47.8238C26.3755 48.574 27.0429 49.1978 27.8252 49.6459C28.6075 50.094 29.4832 50.3542 30.3832 50.4058C31.3714 50.3408 32.3346 50.0679 33.21 49.605C34.0855 49.1422 34.8533 48.4997 35.4634 47.7197C35.6461 47.5022 35.8789 47.3322 36.1417 47.2243C36.4046 47.1165 36.6896 47.0739 36.9725 47.1003C37.2554 47.1267 37.5276 47.2213 37.7659 47.376C38.0043 47.5306 38.2016 47.7407 38.3409 47.9883C38.7223 48.7021 39.2863 49.302 39.9753 49.7267C40.6642 50.1515 41.4535 50.3858 42.2627 50.4058C43.1614 50.3838 44.041 50.1411 44.8239 49.699C45.6068 49.2569 46.2689 48.6291 46.7519 47.8708C46.9087 47.634 47.1209 47.4391 47.37 47.3027C47.6191 47.1663 47.8976 47.0926 48.1816 47.088C48.4655 47.0833 48.7464 47.1479 48.9998 47.2761C49.2532 47.4043 49.4716 47.5923 49.6361 47.8238C49.6512 47.8439 51.5181 50.7198 54.2462 50.3638C54.6876 50.3048 55.1345 50.4236 55.4883 50.6941C55.8422 50.9645 56.0742 51.3645 56.1332 51.806C56.1922 52.2474 56.0734 52.6943 55.8029 53.0481C55.5325 53.402 55.1325 53.634 54.6911 53.693C53.5656 53.8253 52.4249 53.7038 51.3526 53.3374C50.2803 52.9711 49.3037 52.3692 48.4945 51.576C48.4177 51.5069 48.3182 51.4688 48.215 51.4688C48.1117 51.4688 48.0122 51.5069 47.9354 51.576C46.3811 52.9826 44.359 53.7606 42.2627 53.7584C41.2703 53.7665 40.2862 53.5777 39.3673 53.2031C38.4484 52.8285 37.6128 52.2755 36.9089 51.576C36.8357 51.5041 36.7386 51.4616 36.6361 51.4567C36.5337 51.4517 36.4329 51.4846 36.3532 51.5491C34.6757 52.9498 32.5684 53.7326 30.3832 53.7668C28.2415 53.7422 26.1874 52.9135 24.6282 51.445C24.5529 51.3776 24.4558 51.3394 24.3547 51.3376C24.2536 51.3357 24.1553 51.3703 24.0775 51.4349C22.4622 52.8802 20.3971 53.723 18.2318 53.8206V53.8206Z" fill="white"/>
</svg>
