<svg width="26" height="26" viewBox="0 0 26 26" fill="none" xmlns="http://www.w3.org/2000/svg">
<rect width="26" height="26" fill="#157EE7"/>
<path d="M6.31787 8.11523C6.31787 7.68667 6.46838 7.33311 6.76937 7.05456C7.07037 6.77599 7.46168 6.63672 7.94328 6.63672C8.41629 6.63672 8.79898 6.77385 9.09139 7.04813C9.39238 7.33098 9.54289 7.69953 9.54289 8.1538C9.54289 8.56521 9.39669 8.90805 9.10429 9.18233C8.80329 9.46518 8.40768 9.6066 7.91748 9.6066H7.90458C7.43157 9.6066 7.04888 9.46518 6.75647 9.18233C6.46407 8.89949 6.31787 8.54378 6.31787 8.11523ZM6.48557 19.3648V10.7766H9.34939V19.3648H6.48557ZM10.9361 19.3648H13.7999V14.5693C13.7999 14.2693 13.8343 14.0378 13.9031 13.875C14.0235 13.5836 14.2063 13.3372 14.4514 13.1357C14.6965 12.9343 15.0039 12.8336 15.3737 12.8336C16.3369 12.8336 16.8185 13.4807 16.8185 14.775V19.3648H19.6823V14.4407C19.6823 13.1722 19.3814 12.2101 18.7793 11.5544C18.1773 10.8987 17.3818 10.5709 16.3928 10.5709C15.2834 10.5709 14.4191 11.0465 13.7999 11.9979V12.0237H13.787L13.7999 11.9979V10.7766H10.9361C10.9533 11.0508 10.9619 11.9036 10.9619 13.335C10.9619 14.7664 10.9533 16.7763 10.9361 19.3648Z" fill="white"/>
</svg>
