<svg width="72" height="72" viewBox="0 0 72 72" fill="none" xmlns="http://www.w3.org/2000/svg">
<rect width="72" height="72" fill="#CF6EF1"/>
<path fill-rule="evenodd" clip-rule="evenodd" d="M18 45.7399V30.5139H54V45.8619C54 52.1399 50.0483 55.9999 43.7256 55.9999H28.2547C21.9912 55.9999 18 52.0599 18 45.7399ZM27.9188 40.82C27.0099 40.862 26.2591 40.14 26.2195 39.222C26.2195 38.302 26.9308 37.542 27.8397 37.5C28.7289 37.5 29.4599 38.202 29.4797 39.1C29.5192 40.022 28.8079 40.782 27.9188 40.82ZM36.0395 40.82C35.1306 40.862 34.3798 40.14 34.3403 39.222C34.3403 38.302 35.0516 37.542 35.9605 37.5C36.8496 37.5 37.5807 38.202 37.6004 39.1C37.64 40.022 36.9286 40.782 36.0395 40.82ZM44.101 48.1796C43.1921 48.1596 42.461 47.3996 42.461 46.4796C42.4413 45.5596 43.1723 44.8016 44.0812 44.7816H44.101C45.0296 44.7816 45.7805 45.5416 45.7805 46.4796C45.7805 47.4196 45.0296 48.1796 44.101 48.1796ZM34.3403 46.4799C34.3798 47.3999 35.1306 48.1219 36.0395 48.0799C36.9286 48.0419 37.64 47.2819 37.6004 46.3619C37.5807 45.4619 36.8496 44.7599 35.9605 44.7599C35.0516 44.8019 34.3403 45.5599 34.3403 46.4799ZM26.1998 46.4799C26.2393 47.3999 26.9901 48.1219 27.899 48.0799C28.7881 48.0419 29.4995 47.2819 29.4599 46.3619C29.4402 45.4619 28.7091 44.7599 27.82 44.7599C26.9111 44.8019 26.1998 45.5599 26.1998 46.4799ZM42.4808 39.2018C42.4808 38.2818 43.1921 37.5418 44.101 37.5218C44.9901 37.5218 45.7014 38.2398 45.7409 39.1218C45.7607 40.0418 45.0494 40.8018 44.1603 40.8198C43.2514 40.8398 42.5005 40.1398 42.4808 39.2218V39.2018Z" fill="white"/>
<path opacity="0.4" d="M18.0059 30.5142C18.0315 29.3402 18.1303 27.0102 18.3161 26.2602C19.2645 22.0422 22.4851 19.3622 27.0888 18.9802H44.911C49.4752 19.3822 52.7354 22.0802 53.6838 26.2602C53.8676 26.9902 53.9663 29.3382 53.992 30.5142H18.0059Z" fill="white"/>
<path d="M28.6093 25.18C29.4787 25.18 30.1307 24.522 30.1307 23.64V17.542C30.1307 16.66 29.4787 16 28.6093 16C27.7399 16 27.0879 16.66 27.0879 17.542V23.64C27.0879 24.522 27.7399 25.18 28.6093 25.18" fill="white"/>
<path d="M43.3905 25.18C44.2402 25.18 44.9119 24.522 44.9119 23.64V17.542C44.9119 16.66 44.2402 16 43.3905 16C42.5212 16 41.8691 16.66 41.8691 17.542V23.64C41.8691 24.522 42.5212 25.18 43.3905 25.18" fill="white"/>
</svg>
