<svg width="72" height="72" viewBox="0 0 72 72" fill="none" xmlns="http://www.w3.org/2000/svg">
<rect width="72" height="72" fill="#63B9FC"/>
<path d="M32.3563 23.1607C32.4581 23.3681 32.5254 23.5901 32.5556 23.8184L33.1124 32.0982V32.0982L33.3888 36.2598C33.3917 36.6878 33.4588 37.113 33.5881 37.5218C33.922 38.3148 34.7251 38.8188 35.5989 38.7837L48.9134 37.9128C49.49 37.9033 50.0468 38.1189 50.4613 38.5122C50.8067 38.84 51.0297 39.2688 51.0999 39.73L51.1235 40.0101C50.5725 47.6395 44.9691 54.003 37.3555 55.6457C29.7419 57.2883 21.9345 53.8183 18.1722 47.1195C17.0876 45.1733 16.4101 43.0342 16.1795 40.8276C16.0832 40.1744 16.0408 39.5147 16.0527 38.8548C16.0408 30.6751 21.8657 23.6036 30.0194 21.8988C31.0008 21.746 31.9628 22.2655 32.3563 23.1607Z" fill="white"/>
<path opacity="0.4" d="M37.7919 16.0514C46.9117 16.2835 54.5765 22.8414 56.0519 31.6744L56.0378 31.7396V31.7396L55.9975 31.8343L56.0031 32.0945C55.9823 32.4392 55.8492 32.7709 55.6198 33.0388C55.3809 33.3178 55.0545 33.5079 54.6951 33.5816L54.4759 33.6117L39.1143 34.607C38.6033 34.6574 38.0946 34.4926 37.7146 34.1537C37.3979 33.8713 37.1955 33.49 37.1383 33.0792L36.1072 17.7399C36.0893 17.6881 36.0893 17.6318 36.1072 17.58C36.1213 17.1571 36.3074 16.7575 36.624 16.4703C36.9405 16.183 37.3612 16.0322 37.7919 16.0514Z" fill="white"/>
</svg>
