<svg width="56" height="56" viewBox="0 0 56 56" fill="none" xmlns="http://www.w3.org/2000/svg">
<rect width="56" height="56" fill="#C4ABFC"/>
<path opacity="0.4" d="M46.7756 28.0001C46.7756 38.372 38.3696 46.7761 27.9996 46.7761C17.6296 46.7761 9.22363 38.372 9.22363 28.0001C9.22363 17.632 17.6296 9.22412 27.9996 9.22412C38.3696 9.22412 46.7756 17.632 46.7756 28.0001" fill="white"/>
<path d="M34.7089 35.1624C34.463 35.1624 34.2151 35.0986 33.9879 34.9652L26.6165 30.5679C26.1921 30.3126 25.9312 29.8525 25.9312 29.3569V19.8806C25.9312 19.1033 26.562 18.4724 27.3394 18.4724C28.1167 18.4724 28.7476 19.1033 28.7476 19.8806V28.557L35.4318 32.5431C36.0984 32.9431 36.318 33.8068 35.92 34.4752C35.6552 34.9164 35.1877 35.1624 34.7089 35.1624" fill="white"/>
</svg>
