<svg width="72" height="72" viewBox="0 0 72 72" fill="none" xmlns="http://www.w3.org/2000/svg">
<rect width="72" height="72" fill="#FC7273"/>
<path opacity="0.4" d="M37.832 46.6387C37.832 47.6709 38.6801 48.5065 39.7277 48.5065L48.8851 49.0215C50.2201 49.0215 51.301 47.9541 51.301 46.6387C51.301 45.3233 50.2201 44.2583 48.8851 44.2583L39.7277 44.7709C38.6801 44.7709 37.832 45.6065 37.832 46.6387" fill="white"/>
<path d="M19.3977 44.0891C19.3977 44.0891 18.8466 44.6251 18.6066 44.9575C18.2361 45.4396 18.0508 46.0342 18.0508 46.6263C18.0508 47.2911 18.2598 47.909 18.6542 48.4123C18.7468 48.5035 19.096 48.8921 19.4214 49.2128C21.3242 51.2257 26.2913 54.519 28.8924 55.5255C29.2868 55.6847 30.2845 56.0287 30.819 56.0498C31.3273 56.0498 31.8167 55.9375 32.2799 55.7081C32.8595 55.3874 33.3251 54.8842 33.5793 54.2896C33.7432 53.8777 33.9973 52.6442 33.9973 52.6207C34.2539 51.2702 34.3917 49.0747 34.3917 46.6497C34.3917 44.3395 34.2539 42.2353 34.0449 40.8636C34.0211 40.8402 33.7669 39.3095 33.4866 38.7828C32.9759 37.8231 31.9782 37.2263 30.9116 37.2263H30.819C30.1229 37.2497 28.6597 37.8465 28.6597 37.8676C26.1987 38.8741 21.3479 42.0082 19.3977 44.0891" fill="white"/>
<path opacity="0.4" d="M34.27 25.4604C34.27 24.4281 33.422 23.5925 32.3743 23.5925L23.2167 23.0799C21.8816 23.0799 20.8008 24.1449 20.8008 25.4604C20.8008 26.7758 21.8816 27.8431 23.2167 27.8431L32.3743 27.3282C33.422 27.3282 34.27 26.4926 34.27 25.4604" fill="white"/>
<path d="M39.8208 16.3915C39.2412 16.7122 38.778 17.2154 38.5214 17.8099C38.3575 18.2219 38.1033 19.4578 38.1033 19.4788C37.8468 20.8294 37.709 23.0249 37.709 25.4498C37.709 27.76 37.8468 29.8643 38.0558 31.2359C38.0796 31.2593 38.3361 32.7901 38.6141 33.3168C39.1248 34.2788 40.1225 34.8733 41.1915 34.8733H41.2842C41.9802 34.8499 43.4411 34.2554 43.4411 34.232C45.9022 33.2255 50.7554 30.0937 52.7033 28.0105C52.7033 28.0105 53.2544 27.4745 53.492 27.1421C53.8649 26.6623 54.0502 26.0678 54.0502 25.4709C54.0502 24.8085 53.8412 24.1929 53.4468 23.6873C53.3542 23.596 53.005 23.2075 52.6819 22.8868C50.7768 20.8762 45.8095 17.5805 43.2107 16.5764C42.8164 16.4149 41.8163 16.0708 41.2842 16.0498C40.7734 16.0498 40.2841 16.1621 39.8208 16.3915" fill="white"/>
</svg>
