<svg width="26" height="26" viewBox="0 0 26 26" fill="none" xmlns="http://www.w3.org/2000/svg">
<rect width="26" height="26" fill="#009EFF"/>
<path d="M15.1874 7.54252V7.54004H15.8335L16.0696 7.58719C16.227 7.6178 16.3699 7.65792 16.4983 7.70755C16.6267 7.75719 16.7509 7.8151 16.871 7.88127C16.9911 7.94745 17.1001 8.01487 17.1978 8.08353C17.2948 8.15137 17.3817 8.22333 17.4588 8.29944C17.535 8.37637 17.6538 8.39622 17.8154 8.359C17.9769 8.32177 18.1509 8.27006 18.3372 8.20389C18.5236 8.13772 18.708 8.06327 18.8902 7.98054C19.0724 7.89781 19.1834 7.84529 19.2232 7.82295C19.2621 7.7998 19.2828 7.78739 19.2853 7.78573L19.2878 7.782L19.3002 7.7758L19.3127 7.7696L19.3251 7.76339L19.3375 7.75719L19.34 7.75346L19.3437 7.75098L19.3475 7.7485L19.3499 7.74478L19.3624 7.74106L19.3748 7.73857L19.3723 7.75719L19.3686 7.7758L19.3624 7.79441L19.3561 7.81302L19.3499 7.82543L19.3437 7.83784L19.3375 7.85645C19.3334 7.86886 19.3292 7.8854 19.3251 7.90609C19.3209 7.92677 19.2816 8.00949 19.207 8.15426C19.1325 8.29903 19.0393 8.44585 18.9275 8.59476C18.8156 8.74366 18.7154 8.85615 18.6268 8.93227C18.5373 9.0092 18.4781 9.06296 18.4491 9.09358C18.4201 9.12501 18.3849 9.15395 18.3435 9.18043L18.2813 9.22138L18.2689 9.22759L18.2565 9.23379L18.254 9.23751L18.2503 9.23999L18.2465 9.24248L18.2441 9.2462L18.2316 9.2524L18.2192 9.25861L18.2167 9.26233L18.213 9.26481L18.2093 9.26729L18.2068 9.27102L18.2043 9.27474L18.2006 9.27722L18.1968 9.2797L18.1944 9.28342H18.2565L18.6044 9.20897C18.8363 9.15934 19.0579 9.09937 19.2692 9.02905L19.6047 8.91738L19.6419 8.90497L19.6606 8.89876L19.673 8.89256L19.6854 8.88635L19.6979 8.88015L19.7103 8.87395L19.7351 8.87022L19.76 8.86774V8.89256L19.7538 8.89504L19.7476 8.89876L19.7451 8.90249L19.7413 8.90497L19.7376 8.90745L19.7351 8.91117L19.7327 8.91489L19.7289 8.91738L19.7252 8.91986L19.7227 8.92358L19.7202 8.9273L19.7165 8.92978L19.7103 8.94219L19.7041 8.9546L19.7003 8.95708C19.6987 8.95956 19.6461 9.02987 19.5425 9.16803C19.439 9.307 19.3831 9.37731 19.3748 9.37897C19.3665 9.38145 19.3549 9.39386 19.34 9.41619C19.3259 9.43935 19.2381 9.53159 19.0766 9.6929C18.915 9.85421 18.7568 9.99773 18.6019 10.1235C18.4462 10.25 18.3675 10.4056 18.3658 10.59C18.3634 10.7737 18.3538 10.9813 18.3372 11.2129C18.3207 11.4446 18.2896 11.6948 18.2441 11.9636C18.1985 12.2325 18.1281 12.5365 18.0328 12.8757C17.9376 13.2148 17.8216 13.5457 17.6849 13.8683C17.5482 14.191 17.4053 14.4805 17.2562 14.7369C17.1071 14.9934 16.9704 15.2105 16.8462 15.3884C16.7219 15.5662 16.5956 15.7337 16.4672 15.8909C16.3388 16.0481 16.1764 16.2251 15.9801 16.422C15.783 16.6181 15.6753 16.7256 15.6571 16.7446C15.638 16.7628 15.5568 16.8307 15.4135 16.9481C15.271 17.0664 15.1178 17.1847 14.9538 17.303C14.7906 17.4205 14.6406 17.5185 14.5039 17.5971C14.3673 17.6757 14.2024 17.7654 14.0094 17.8663C13.8172 17.9681 13.6093 18.0624 13.3856 18.1493C13.162 18.2361 12.9259 18.3168 12.6774 18.3912C12.4289 18.4657 12.1886 18.5236 11.9567 18.5649C11.7248 18.6063 11.4617 18.6415 11.1677 18.6704L10.7266 18.7138V18.72H9.9189V18.7138L9.81328 18.7076C9.74288 18.7035 9.68489 18.6994 9.63932 18.6952C9.59377 18.6911 9.42187 18.6683 9.12366 18.627C8.82544 18.5856 8.59143 18.5442 8.42161 18.5029C8.2518 18.4615 7.99914 18.3829 7.66365 18.2671C7.32816 18.1513 7.04113 18.0343 6.80256 17.916C6.56482 17.7985 6.41571 17.7241 6.35523 17.6926C6.29559 17.662 6.22849 17.624 6.15394 17.5785L6.04211 17.5102L6.03964 17.5065L6.0359 17.504L6.03217 17.5015L6.02968 17.4978L6.01726 17.4916L6.00483 17.4854L6.00236 17.4817L5.99862 17.4792L5.99489 17.4767L5.99241 17.473L5.98993 17.4693L5.98619 17.4668H5.97998V17.442L5.99241 17.4445L6.00483 17.4482L6.06075 17.4544C6.09802 17.4585 6.1995 17.4647 6.36517 17.473C6.53086 17.4813 6.70688 17.4813 6.89326 17.473C7.07965 17.4647 7.27018 17.4461 7.46484 17.4172C7.65951 17.3882 7.88939 17.3386 8.15446 17.2683C8.41955 17.1979 8.66309 17.1144 8.8851 17.0176C9.10628 16.92 9.26366 16.8472 9.35727 16.7992C9.45004 16.7521 9.59169 16.6644 9.78222 16.5362L10.068 16.3438L10.0705 16.3401L10.0742 16.3376L10.078 16.3351L10.0804 16.3314L10.0829 16.3277L10.0866 16.3252L10.0904 16.3227L10.0929 16.319L10.1053 16.3153L10.1177 16.3128L10.1202 16.3004L10.1239 16.288L10.1277 16.2855L10.1301 16.2818L10.0307 16.2756C9.96446 16.2714 9.90026 16.2673 9.83813 16.2632C9.776 16.259 9.67867 16.2404 9.54613 16.2073C9.4136 16.1742 9.2707 16.1246 9.11745 16.0584C8.9642 15.9923 8.81509 15.9137 8.67012 15.8227C8.52517 15.7317 8.42037 15.656 8.35576 15.5956C8.29198 15.536 8.20913 15.4517 8.10724 15.3425C8.00619 15.2324 7.91838 15.1195 7.84382 15.0037C7.76927 14.8879 7.69803 14.7543 7.63011 14.6029L7.52697 14.3771L7.52076 14.3585L7.51454 14.3399L7.51082 14.3275L7.50833 14.315L7.52697 14.3175L7.54561 14.3212L7.68229 14.3399C7.77342 14.3523 7.91631 14.3564 8.11097 14.3523C8.30564 14.3481 8.44025 14.3399 8.5148 14.3275C8.58936 14.315 8.63492 14.3068 8.65149 14.3026L8.67634 14.2964L8.7074 14.2902L8.73847 14.284L8.74095 14.2803L8.74468 14.2778L8.74842 14.2753L8.75089 14.2716L8.72604 14.2654L8.70119 14.2592L8.67634 14.253L8.65149 14.2468L8.62663 14.2406C8.61007 14.2365 8.58108 14.2282 8.53966 14.2158C8.49824 14.2034 8.38641 14.1579 8.20416 14.0793C8.02193 14.0007 7.87696 13.9242 7.76927 13.8497C7.66131 13.7751 7.55837 13.6934 7.46111 13.6053C7.36419 13.5159 7.25776 13.401 7.14177 13.2603C7.02581 13.1197 6.92226 12.9563 6.83113 12.7702C6.74002 12.5841 6.67168 12.4062 6.62611 12.2366C6.58073 12.068 6.55079 11.8957 6.53666 11.7217L6.51428 11.4611L6.52671 11.4636L6.53913 11.4673L6.55156 11.4735L6.56398 11.4797L6.57641 11.4859L6.58884 11.4921L6.78143 11.579C6.90984 11.6369 7.0693 11.6865 7.25982 11.7279C7.45035 11.7692 7.56425 11.792 7.60152 11.7961L7.65744 11.8023H7.76927L7.7668 11.7986L7.76306 11.7961L7.75933 11.7937L7.75684 11.7899L7.75437 11.7862L7.75063 11.7837L7.7469 11.7812L7.74442 11.7775L7.73199 11.7713L7.71957 11.7651L7.71709 11.7614L7.71335 11.7589L7.70963 11.7564L7.70714 11.7527L7.69471 11.7465L7.68229 11.7403L7.67982 11.7366C7.67733 11.7349 7.64171 11.7084 7.57294 11.6572C7.50501 11.605 7.43378 11.5376 7.35922 11.4549C7.28467 11.3722 7.21012 11.2853 7.13556 11.1943C7.06087 11.1031 6.99435 11.0055 6.93675 10.9027C6.87877 10.7993 6.81747 10.6678 6.75285 10.5081C6.68907 10.3493 6.64061 10.1892 6.60747 10.0279C6.57435 9.86662 6.55571 9.70738 6.55156 9.55021C6.54742 9.39303 6.55156 9.25861 6.56398 9.14693C6.57641 9.03526 6.60126 8.9091 6.63854 8.76847C6.67581 8.62785 6.72967 8.47895 6.80007 8.32177L6.90569 8.08601L6.9119 8.0674L6.91811 8.04878L6.92185 8.0463L6.92433 8.04258L6.92681 8.03886L6.93054 8.03638L6.93428 8.03886L6.93675 8.04258L6.93924 8.0463L6.94297 8.04878L6.94671 8.05127L6.94918 8.05499L6.95166 8.05871L6.95539 8.06119L6.9616 8.0736L6.96782 8.08601L6.97156 8.08849L6.97403 8.09221L7.14177 8.27834C7.25361 8.40243 7.38615 8.54099 7.53939 8.69402C7.69265 8.84706 7.77756 8.92647 7.79412 8.93227C7.81069 8.93888 7.8314 8.9579 7.85625 8.98934C7.8811 9.01996 7.96394 9.09317 8.10476 9.20897C8.24559 9.32478 8.4299 9.45921 8.6577 9.61225C8.88551 9.76528 9.13816 9.91625 9.41566 10.0652C9.69317 10.2141 9.99139 10.3485 10.3103 10.4684C10.6292 10.5884 10.8529 10.667 10.9813 10.7042C11.1097 10.7414 11.3292 10.789 11.6398 10.8469C11.9505 10.9048 12.1845 10.942 12.3419 10.9586C12.4993 10.9751 12.607 10.9846 12.665 10.9871L12.7519 10.9896L12.7495 10.971L12.7457 10.9524L12.7209 10.7973C12.7043 10.6939 12.696 10.5491 12.696 10.363C12.696 10.1768 12.7105 10.0052 12.7395 9.84801C12.7685 9.69083 12.812 9.53159 12.87 9.37028C12.928 9.20897 12.9847 9.0795 13.0402 8.9819C13.0965 8.88511 13.1703 8.77468 13.2614 8.65059C13.3525 8.52651 13.4706 8.39829 13.6155 8.26593C13.7605 8.13357 13.9262 8.01569 14.1125 7.91229C14.2989 7.80889 14.4708 7.7303 14.6282 7.67653C14.7856 7.62277 14.9181 7.5876 15.0258 7.57106C15.1335 7.55452 15.1874 7.545 15.1874 7.54252V7.54252Z" fill="white"/>
</svg>
