<svg width="72" height="72" viewBox="0 0 72 72" fill="none" xmlns="http://www.w3.org/2000/svg">
<rect width="72" height="72" fill="#7E72F0"/>
<path d="M32.3054 23.111C32.4072 23.3183 32.4745 23.5404 32.5047 23.7686L33.0615 32.0485V32.0485L33.3379 36.2101C33.3408 36.6381 33.4079 37.0633 33.5372 37.472C33.8711 38.265 34.6742 38.7691 35.548 38.7339L48.8625 37.863C49.4391 37.8535 49.9959 38.0692 50.4104 38.4625C50.7558 38.7903 50.9788 39.2191 51.049 39.6803L51.0726 39.9603C50.5216 47.5897 44.9182 53.9532 37.3046 55.5959C29.691 57.2386 21.8836 53.7685 18.1213 47.0697C17.0367 45.1236 16.3592 42.9844 16.1286 40.7779C16.0323 40.1247 15.9899 39.4649 16.0018 38.805C15.9899 30.6254 21.8148 23.5539 29.9685 21.8491C30.9499 21.6963 31.9119 22.2158 32.3054 23.111Z" fill="white"/>
<path opacity="0.4" d="M37.7402 16.0017C46.8599 16.2337 54.5248 22.7916 56.0001 31.6246L55.986 31.6898V31.6898L55.9458 31.7846L55.9514 32.0448C55.9305 32.3895 55.7974 32.7211 55.5681 32.989C55.3292 33.2681 55.0028 33.4581 54.6433 33.5319L54.4241 33.562L39.0625 34.5573C38.5516 34.6077 38.0428 34.4429 37.6628 34.104C37.3462 33.8215 37.1437 33.4402 37.0865 33.0294L36.0555 17.6902C36.0375 17.6383 36.0375 17.5821 36.0555 17.5302C36.0695 17.1074 36.2557 16.7077 36.5722 16.4205C36.8888 16.1333 37.3094 15.9825 37.7402 16.0017Z" fill="white"/>
</svg>
