<svg width="26" height="26" viewBox="0 0 26 26" fill="none" xmlns="http://www.w3.org/2000/svg">
<rect width="26" height="26" fill="#FF0000"/>
<path d="M13.334 18.4449L10.2402 18.387C9.2385 18.3669 8.2343 18.4071 7.25222 18.1984C5.75826 17.8865 5.65243 16.3572 5.54168 15.0745C5.38908 13.2711 5.44816 11.435 5.73613 9.64664C5.8987 8.6432 6.53848 8.04444 7.52788 7.97928C10.8678 7.74282 14.23 7.77085 17.5626 7.88116C17.9145 7.89128 18.2689 7.94655 18.6159 8.00947C20.3291 8.31634 20.3708 10.0493 20.4819 11.5082C20.5926 12.9821 20.5459 14.4635 20.3342 15.9274C20.1644 17.1394 19.8395 18.1558 18.4683 18.2539C16.7502 18.3823 15.0716 18.4855 13.3488 18.4527C13.3489 18.4449 13.339 18.4449 13.334 18.4449ZM11.5152 15.3763C12.8098 14.6167 14.0798 13.8697 15.3671 13.1151C14.07 12.3555 12.8024 11.6085 11.5152 10.854V15.3763Z" fill="white"/>
</svg>
