<svg width="72" height="72" viewBox="0 0 72 72" fill="none" xmlns="http://www.w3.org/2000/svg">
<rect width="72" height="72" fill="#74AFFF"/>
<path fill-rule="evenodd" clip-rule="evenodd" d="M35.9994 56.7084C24.5684 56.7084 15.291 47.4518 15.291 36C15.291 24.569 24.5684 15.2916 35.9994 15.2916C47.4512 15.2916 56.7078 24.569 56.7078 36C56.7078 47.4518 47.4512 56.7084 35.9994 56.7084ZM42.6075 43.683C42.856 43.8279 43.1252 43.9107 43.4151 43.9107C43.9328 43.9107 44.4505 43.6415 44.7405 43.1445C45.1753 42.4197 44.9475 41.4672 44.202 41.0116L36.8298 36.6214V27.0541C36.8298 26.1844 36.1258 25.501 35.2767 25.501C34.4277 25.501 33.7236 26.1844 33.7236 27.0541V37.5119C33.7236 38.0503 34.0135 38.5473 34.4898 38.8372L42.6075 43.683Z" fill="white"/>
</svg>
