<svg width="72" height="72" viewBox="0 0 72 72" fill="none" xmlns="http://www.w3.org/2000/svg">
<rect width="72" height="72" fill="#FF775F"/>
<path fill-rule="evenodd" clip-rule="evenodd" d="M42.8101 21.6577C43.4757 21.6669 44.1429 21.676 44.8125 21.6829C52.0065 21.6829 57.2517 26.8117 57.2517 33.8943V42.9919C57.2517 50.0745 52.0065 55.2033 44.8125 55.2033C41.9308 55.2644 39.049 55.2848 36.1466 55.2848C33.2441 55.2848 30.3209 55.2644 27.4392 55.2033C20.2452 55.2033 15 50.0745 15 42.9919V33.8943C15 26.8117 20.2452 21.6829 27.4599 21.6829C30.1758 21.6422 32.9539 21.6015 35.7734 21.6015V21.2555C35.7734 19.8511 34.5917 18.7114 33.1819 18.7114H31.1294C28.7867 18.7114 26.8794 16.839 26.8794 14.5595C26.8794 13.7251 27.5843 13.0331 28.4343 13.0331C29.305 13.0331 29.9892 13.7251 29.9892 14.5595C29.9892 15.1701 30.5075 15.6585 31.1294 15.6585H33.1819C36.3124 15.6789 38.8625 18.1822 38.8832 21.2351V21.6218C40.1901 21.6218 41.4971 21.6397 42.8101 21.6577ZM33.7003 39.9591H31.5234V42.1165C31.5234 42.951 30.8185 43.6429 29.9685 43.6429C29.0978 43.6429 28.4136 42.951 28.4136 42.1165V39.9591H26.2161C25.366 39.9591 24.6612 39.2875 24.6612 38.4327C24.6612 37.5983 25.366 36.9063 26.2161 36.9063H28.4136V34.7693C28.4136 33.9348 29.0978 33.2428 29.9685 33.2428C30.8185 33.2428 31.5234 33.9348 31.5234 34.7693V36.9063H33.7003C34.5503 36.9063 35.2552 37.5983 35.2552 38.4327C35.2552 39.2875 34.5503 39.9591 33.7003 39.9591ZM42.5085 36.5196H42.7158C43.5658 36.5196 44.2707 35.848 44.2707 34.9932C44.2707 34.1587 43.5658 33.4668 42.7158 33.4668H42.5085C41.6377 33.4668 40.9536 34.1587 40.9536 34.9932C40.9536 35.848 41.6377 36.5196 42.5085 36.5196ZM46.0528 43.5207H46.2601C47.1101 43.5207 47.815 42.8491 47.815 41.9943C47.815 41.1598 47.1101 40.4678 46.2601 40.4678H46.0528C45.18 40.4678 44.4979 41.1598 44.4979 41.9943C44.4979 42.8491 45.18 43.5207 46.0528 43.5207Z" fill="white"/>
<circle opacity="0.4" r="2.5" transform="matrix(1 0 0 -1 42.5 35.5331)" fill="white"/>
<ellipse opacity="0.4" rx="6" ry="5.5" transform="matrix(1 0 0 -1 30 38.5331)" fill="white"/>
<circle opacity="0.4" r="2" transform="matrix(1 0 0 -1 46 42.0331)" fill="white"/>
</svg>
