<svg width="72" height="72" viewBox="0 0 72 72" fill="none" xmlns="http://www.w3.org/2000/svg">
<rect width="72" height="72" fill="#F1528A"/>
<path opacity="0.4" d="M16.0508 34.2064C16.1508 38.8824 16.4308 46.8804 16.4708 47.7624C16.6128 49.6484 17.3348 51.5544 18.4588 52.8984C20.0228 54.7844 21.9488 55.6264 24.6348 55.6264C28.3468 55.6464 32.4388 55.6464 36.4128 55.6464C40.4028 55.6464 44.2748 55.6464 47.5448 55.6264C50.1928 55.6264 52.1788 54.7624 53.7228 52.8984C54.8468 51.5544 55.5688 49.6284 55.6708 47.7624C55.7108 47.0204 55.9108 38.3384 56.0308 34.2064H16.0508Z" fill="white"/>
<path d="M34.541 42.8177V45.4057C34.541 46.2337 35.213 46.9057 36.041 46.9057C36.869 46.9057 37.541 46.2337 37.541 45.4057V42.8177C37.541 41.9897 36.869 41.3177 36.041 41.3177C35.213 41.3177 34.541 41.9897 34.541 42.8177" fill="white"/>
<path fill-rule="evenodd" clip-rule="evenodd" d="M32.4728 41.1622C32.2728 41.8882 31.5748 42.3522 30.8188 42.2522C25.7168 41.5402 20.8408 39.7302 16.7248 37.0122C16.3028 36.7362 16.0508 36.2642 16.0508 35.7602V28.8282C16.0508 24.6282 19.4748 21.2122 23.6848 21.2122H27.6188C27.9948 18.3082 30.4548 16.0502 33.4588 16.0502H38.6228C41.6248 16.0502 44.0868 18.3082 44.4628 21.2122H48.4168C52.6148 21.2122 56.0308 24.6282 56.0308 28.8282V35.7602C56.0308 36.2642 55.7768 36.7342 55.3588 37.0122C51.2348 39.7422 46.3388 41.5602 41.2028 42.2702C41.1328 42.2802 41.0648 42.2842 40.9968 42.2842C40.3188 42.2842 39.7128 41.8262 39.5428 41.1542C39.1388 39.5622 37.6928 38.4482 36.0308 38.4482C34.3468 38.4482 32.9168 39.5382 32.4728 41.1622ZM38.6228 19.0502H33.4588C32.1128 19.0502 30.9888 19.9702 30.6528 21.2122H41.4268C41.0908 19.9702 39.9668 19.0502 38.6228 19.0502Z" fill="white"/>
</svg>
