<svg width="32" height="32" viewBox="0 0 32 32" fill="none" xmlns="http://www.w3.org/2000/svg">
<path d="M16 0C11.7565 0 7.68687 1.68571 4.68629 4.68629C1.68571 7.68687 0 11.7565 0 16C0 20.2435 1.68571 24.3131 4.68629 27.3137C7.68687 30.3143 11.7565 32 16 32C20.2435 32 24.3131 30.3143 27.3137 27.3137C30.3143 24.3131 32 20.2435 32 16C32 11.7565 30.3143 7.68687 27.3137 4.68629C24.3131 1.68571 20.2435 0 16 0V0Z" fill="#E4E4EB"/>
<path d="M23 12L14.3608 20.3307C13.9734 20.7042 13.3599 20.7042 12.9725 20.3307L9 16.5" stroke="#050229" stroke-width="2" stroke-miterlimit="10" stroke-linecap="round"/>
</svg>
