<svg width="26" height="26" viewBox="0 0 26 26" fill="none" xmlns="http://www.w3.org/2000/svg">
<rect width="26" height="26" fill="#54E447"/>
<path fill-rule="evenodd" clip-rule="evenodd" d="M18.3564 6.81483C16.9236 5.3808 15.018 4.59065 12.9879 4.58984C8.80479 4.58984 5.40027 7.99306 5.3986 12.1762C5.39804 13.5133 5.74752 14.8186 6.41162 15.9691L5.33496 19.9005L9.35815 18.8456C10.4666 19.4499 11.7147 19.7685 12.9848 19.769H12.988C17.1706 19.769 20.5754 16.3654 20.5771 12.1822C20.5779 10.155 19.7893 8.24886 18.3564 6.81483V6.81483ZM12.988 18.4876H12.9854C11.8535 18.4872 10.7433 18.1832 9.77488 17.6087L9.54452 17.472L7.15714 18.0981L7.79439 15.7711L7.64439 15.5325C7.01297 14.5285 6.67946 13.3681 6.67996 12.1766C6.68134 8.69981 9.51106 5.87121 12.9905 5.87121C14.6753 5.87185 16.259 6.52863 17.45 7.72054C18.6409 8.91246 19.2964 10.4968 19.2958 12.1817C19.2943 15.6588 16.4647 18.4876 12.988 18.4876V18.4876ZM16.4479 13.7649C16.2583 13.67 15.326 13.2114 15.1522 13.1481C14.9784 13.0849 14.852 13.0532 14.7255 13.243C14.5991 13.4328 14.2357 13.8598 14.1251 13.9863C14.0145 14.1128 13.9039 14.1287 13.7142 14.0337C13.5246 13.9389 12.9136 13.7387 12.1893 13.0929C11.6256 12.5902 11.245 11.9694 11.1344 11.7796C11.0238 11.5898 11.1226 11.4872 11.2175 11.3927C11.3028 11.3078 11.4071 11.1713 11.502 11.0606C11.5968 10.9499 11.6284 10.8709 11.6916 10.7443C11.7548 10.6178 11.7232 10.5071 11.6758 10.4122C11.6284 10.3173 11.2491 9.38427 11.0911 9.00471C10.9372 8.63506 10.7809 8.68508 10.6645 8.67929C10.554 8.67379 10.4274 8.67261 10.301 8.67261C10.1746 8.67261 9.96917 8.72007 9.79534 8.90983C9.62153 9.09962 9.13168 9.55824 9.13168 10.4913C9.13168 11.4244 9.81115 12.3258 9.90597 12.4523C10.0008 12.5788 11.2431 14.4936 13.1454 15.3147C13.5978 15.51 13.951 15.6267 14.2264 15.7141C14.6807 15.8583 15.0941 15.838 15.4208 15.7892C15.7851 15.7348 16.5427 15.3306 16.7008 14.8878C16.8588 14.4449 16.8588 14.0654 16.8114 13.9863C16.764 13.9072 16.6376 13.8598 16.4479 13.7649" fill="white"/>
</svg>
