<svg width="65" height="65" viewBox="0 0 65 65" fill="none" xmlns="http://www.w3.org/2000/svg">
<rect width="65" height="65" fill="#FF627A"/>
<path opacity="0.5" d="M32.5379 14.0638C21.8104 14.0638 14.0371 22.8157 14.0371 32.5277C14.0371 35.6296 14.9418 38.8239 16.5297 41.7412C16.8252 42.2212 16.8621 42.8306 16.659 43.4029L15.4219 47.5388C15.1449 48.5359 15.9943 49.2744 16.9359 48.979L20.6656 47.8712C21.6812 47.5388 22.4751 47.9635 23.4186 48.5359C26.1143 50.1238 29.4729 50.9362 32.501 50.9362C41.6591 50.9362 50.9648 43.8645 50.9648 32.4723C50.9648 22.6495 43.0254 14.0638 32.5379 14.0638" fill="white"/>
<path fill-rule="evenodd" clip-rule="evenodd" d="M32.4649 34.9097C31.1539 34.8913 30.1015 33.8388 30.1015 32.5279C30.1015 31.2354 31.1724 30.1645 32.4649 30.183C33.7758 30.183 34.8282 31.2354 34.8282 32.5464C34.8282 33.8388 33.7758 34.9097 32.4649 34.9097ZM23.9513 34.9096C22.6588 34.9096 21.5879 33.8387 21.5879 32.5462C21.5879 31.2353 22.6403 30.1829 23.9513 30.1829C25.2622 30.1829 26.3146 31.2353 26.3146 32.5462C26.3146 33.8387 25.2622 34.8912 23.9513 34.9096ZM38.6122 32.5464C38.6122 33.8388 39.6647 34.9097 40.9756 34.9097C42.2866 34.9097 43.339 33.8388 43.339 32.5464C43.339 31.2354 42.2866 30.183 40.9756 30.183C39.6647 30.183 38.6122 31.2354 38.6122 32.5464Z" fill="white"/>
</svg>
