<svg width="26" height="26" viewBox="0 0 26 26" fill="none" xmlns="http://www.w3.org/2000/svg">
<g clip-path="url(#clip0)">
<g filter="url(#filter0_d)">
<rect width="26" height="26" fill="url(#paint0_radial)"/>
</g>
<path d="M10.2866 13.0894C10.2866 11.685 11.4248 10.5462 12.8292 10.5462C14.2336 10.5462 15.3724 11.685 15.3724 13.0894C15.3724 14.4938 14.2336 15.6326 12.8292 15.6326C11.4248 15.6326 10.2866 14.4938 10.2866 13.0894V13.0894ZM8.91178 13.0894C8.91178 15.253 10.6656 17.0068 12.8292 17.0068C14.9927 17.0068 16.7465 15.253 16.7465 13.0894C16.7465 10.9258 14.9927 9.17203 12.8292 9.17203C10.6656 9.17203 8.91184 10.9257 8.91184 13.0894H8.91178ZM15.9862 9.01671C15.9861 9.19777 16.0398 9.37479 16.1403 9.52538C16.2408 9.67597 16.3838 9.79336 16.551 9.86272C16.7183 9.93208 16.9023 9.95028 17.0799 9.91503C17.2575 9.87977 17.4207 9.79265 17.5488 9.66467C17.6768 9.53669 17.7641 9.3736 17.7995 9.19603C17.8349 9.01846 17.8168 8.83438 17.7476 8.66707C17.6784 8.49976 17.5611 8.35674 17.4106 8.25608C17.2601 8.15543 17.0831 8.10167 16.902 8.1016H16.9017C16.659 8.10171 16.4262 8.19815 16.2546 8.36973C16.0829 8.54131 15.9864 8.774 15.9862 9.01671V9.01671ZM9.74706 19.2993C9.00326 19.2654 8.59899 19.1415 8.33033 19.0368C7.97415 18.8982 7.72001 18.733 7.45281 18.4662C7.18562 18.1994 7.02022 17.9455 6.88217 17.5893C6.77744 17.3207 6.65354 16.9163 6.61973 16.1725C6.58275 15.3684 6.57536 15.1268 6.57536 13.0895C6.57536 11.0522 6.58336 10.8113 6.61973 10.0065C6.6536 9.26272 6.77841 8.85912 6.88217 8.58979C7.02083 8.23361 7.18598 7.97947 7.45281 7.71227C7.71965 7.44508 7.97354 7.27968 8.33033 7.14163C8.59887 7.0369 9.00326 6.913 9.74706 6.87919C10.5512 6.84221 10.7928 6.83482 12.8292 6.83482C14.8655 6.83482 15.1074 6.8427 15.9122 6.87931C16.656 6.91319 17.0596 7.038 17.3289 7.14175C17.6851 7.2798 17.9392 7.44557 18.2064 7.7124C18.4736 7.97923 18.6384 8.23373 18.7771 8.58991C18.8818 8.85845 19.0057 9.26285 19.0395 10.0066C19.0765 10.8115 19.0839 11.0524 19.0839 13.0897C19.0839 15.127 19.0765 15.3678 19.0395 16.1727C19.0056 16.9165 18.8811 17.3207 18.7771 17.5894C18.6384 17.9456 18.4732 18.1997 18.2064 18.4663C17.9396 18.7329 17.6851 18.8983 17.3289 19.037C17.0604 19.1417 16.656 19.2656 15.9122 19.2994C15.108 19.3364 14.8665 19.3438 12.8292 19.3438C10.7919 19.3438 10.551 19.3364 9.74706 19.2994V19.2993ZM9.68389 5.50665C8.87174 5.54364 8.31678 5.67241 7.83213 5.861C7.33051 6.05575 6.9053 6.31703 6.4807 6.74096C6.0561 7.16488 5.7955 7.59015 5.60075 8.09238C5.41216 8.57734 5.28338 9.13199 5.2464 9.94414C5.2088 10.7576 5.2002 11.0176 5.2002 13.0894C5.2002 15.1612 5.2088 15.4213 5.2464 16.2347C5.28338 17.0469 5.41216 17.6015 5.60075 18.0864C5.7955 18.5881 6.05616 19.0141 6.4807 19.4379C6.90524 19.8616 7.3299 20.1225 7.83213 20.3178C8.3177 20.5064 8.87174 20.6352 9.68389 20.6722C10.4977 20.7092 10.7574 20.7184 12.8292 20.7184C14.9009 20.7184 15.161 20.7098 15.9744 20.6722C16.7866 20.6352 17.3412 20.5064 17.8262 20.3178C18.3278 20.1225 18.753 19.8618 19.1776 19.4379C19.6022 19.0139 19.8623 18.5881 20.0576 18.0864C20.2462 17.6015 20.3755 17.0468 20.4119 16.2347C20.4489 15.4206 20.4575 15.1612 20.4575 13.0894C20.4575 11.0176 20.4489 10.7576 20.4119 9.94414C20.3749 9.13193 20.2462 8.57703 20.0576 8.09238C19.8623 7.59076 19.6015 7.16555 19.1776 6.74096C18.7537 6.31636 18.3278 6.05575 17.8268 5.861C17.3412 5.67241 16.7866 5.54303 15.975 5.50665C15.1615 5.46948 14.9016 5.46045 12.8301 5.46045C10.7586 5.46045 10.4981 5.46905 9.6842 5.50665" fill="white"/>
</g>
<defs>
<filter id="filter0_d" x="-8.43387" y="-2.30015" width="42.8677" height="42.8677" filterUnits="userSpaceOnUse" color-interpolation-filters="sRGB">
<feFlood flood-opacity="0" result="BackgroundImageFix"/>
<feColorMatrix in="SourceAlpha" type="matrix" values="0 0 0 0 0 0 0 0 0 0 0 0 0 0 0 0 0 0 127 0"/>
<feOffset dy="6.13372"/>
<feGaussianBlur stdDeviation="4.21694"/>
<feColorMatrix type="matrix" values="0 0 0 0 0.983333 0 0 0 0 0.0573611 0 0 0 0 0.354726 0 0 0 0.14 0"/>
<feBlend mode="normal" in2="BackgroundImageFix" result="effect1_dropShadow"/>
<feBlend mode="normal" in="SourceGraphic" in2="effect1_dropShadow" result="shape"/>
</filter>
<radialGradient id="paint0_radial" cx="0" cy="0" r="1" gradientUnits="userSpaceOnUse" gradientTransform="translate(1.68269 25.4304) scale(33.0103)">
<stop offset="0.09" stop-color="#FA8F21"/>
<stop offset="0.78" stop-color="#EB2482"/>
</radialGradient>
<clipPath id="clip0">
<rect width="26" height="26" fill="white"/>
</clipPath>
</defs>
</svg>
