<svg width="173" height="24" viewBox="0 0 173 24" fill="none" xmlns="http://www.w3.org/2000/svg">
<path d="M12.4074 19.7762L18.6081 23.5186C19.5865 24.1088 20.7932 23.2316 20.5336 22.1197L18.8877 15.0654L24.3671 10.3185C25.2307 9.57097 24.769 8.15212 23.6309 8.05604L16.4181 7.44457L13.5966 0.787104C13.1511 -0.262368 11.6637 -0.262368 11.2182 0.787104L8.3967 7.44457L1.18392 8.05604C0.0458463 8.15212 -0.415871 9.57097 0.447665 10.3185L5.92713 15.0654L4.28117 22.1197C4.02161 23.2316 5.22831 24.1088 6.20666 23.5186L12.4074 19.7762Z" fill="#FFD234"/>
<path d="M49.2219 19.7762L55.4226 23.5186C56.4009 24.1088 57.6076 23.2316 57.3481 22.1197L55.7021 15.0654L61.1816 10.3185C62.0451 9.57097 61.5834 8.15212 60.4453 8.05604L53.2326 7.44457L50.4111 0.787104C49.9656 -0.262368 48.4781 -0.262368 48.0326 0.787104L45.2111 7.44457L37.9984 8.05604C36.8603 8.15212 36.3986 9.57097 37.2621 10.3185L42.7416 15.0654L41.0956 22.1197C40.8361 23.2316 42.0428 24.1088 43.0211 23.5186L49.2219 19.7762Z" fill="#FFD234"/>
<path d="M86.0373 19.7762L92.238 23.5186C93.2164 24.1088 94.4231 23.2316 94.1635 22.1197L92.5176 15.0654L97.997 10.3185C98.8606 9.57097 98.3988 8.15212 97.2608 8.05604L90.048 7.44457L87.2265 0.787104C86.781 -0.262368 85.2935 -0.262368 84.848 0.787104L82.0266 7.44457L74.8138 8.05604C73.6757 8.15212 73.214 9.57097 74.0775 10.3185L79.557 15.0654L77.9111 22.1197C77.6515 23.2316 78.8582 24.1088 79.8365 23.5186L86.0373 19.7762Z" fill="#FFD234"/>
<path d="M122.852 19.7762L129.052 23.5186C130.031 24.1088 131.238 23.2316 130.978 22.1197L129.332 15.0654L134.811 10.3185C135.675 9.57097 135.213 8.15212 134.075 8.05604L126.862 7.44457L124.041 0.787104C123.595 -0.262368 122.108 -0.262368 121.663 0.787104L118.841 7.44457L111.628 8.05604C110.49 8.15212 110.028 9.57097 110.892 10.3185L116.371 15.0654L114.726 22.1197C114.466 23.2316 115.673 24.1088 116.651 23.5186L122.852 19.7762Z" fill="#FFD234"/>
<path d="M159.666 19.7762L165.867 23.5186C166.845 24.1088 168.052 23.2316 167.792 22.1197L166.146 15.0654L171.626 10.3185C172.489 9.57097 172.028 8.15212 170.89 8.05604L163.677 7.44457L160.855 0.787104C160.41 -0.262368 158.922 -0.262368 158.477 0.787104L155.655 7.44457L148.443 8.05604C147.305 8.15212 146.843 9.57097 147.706 10.3185L153.186 15.0654L151.54 22.1197C151.28 23.2316 152.487 24.1088 153.465 23.5186L159.666 19.7762Z" fill="#FFD234"/>
</svg>
