<svg width="143" height="33" viewBox="0 0 143 33" fill="none" xmlns="http://www.w3.org/2000/svg">
<path d="M23.7677 32.5195L14.4291 32.3468C11.4054 32.2868 8.37426 32.4069 5.40999 31.7837C0.900443 30.8526 0.580985 26.2874 0.246669 22.4581C-0.213944 17.0744 -0.0356425 11.5931 0.833579 6.25455C1.32391 3.25863 3.25551 1.47159 6.24207 1.27636C16.3236 0.570557 26.4719 0.653152 36.5311 0.983529C37.5935 1.01356 38.6633 1.17875 39.7108 1.36647C44.8816 2.28251 45.0079 7.45592 45.3422 11.8109C45.6765 16.2109 45.5353 20.6335 44.8964 25.0035C44.3838 28.6226 43.4032 31.6561 39.2651 31.9489C34.0795 32.3318 29.0127 32.6397 23.8122 32.5421C23.8122 32.5195 23.7825 32.5195 23.7677 32.5195V32.5195ZM18.2774 23.3591C22.1852 21.0915 26.0187 18.8614 29.9042 16.6089C25.989 14.3413 22.1629 12.1112 18.2774 9.85866V23.3591Z" fill="#FF0000"/>
<path d="M120.246 28.4045C120.068 29.1403 119.912 29.7185 119.756 30.3342H116.101V1.83887H120.365V12.351C120.588 12.0656 120.699 11.9455 120.796 11.8179C121.524 10.8042 122.468 10.1434 123.686 9.88814C125.625 9.5052 127.282 10.3687 127.869 12.2534C128.248 13.4247 128.493 14.6787 128.522 15.9026C128.582 19.0487 128.537 22.1873 128.426 25.3334C128.381 26.2945 128.091 27.2782 127.727 28.1792C126.531 31.1526 122.624 31.6031 120.685 29.0277C120.566 28.87 120.454 28.6973 120.246 28.4045V28.4045ZM120.454 20.5654V25.7764C120.454 26.6249 120.9 27.143 121.739 27.3382C122.564 27.5335 123.233 27.2106 123.567 26.4372C123.708 26.1143 123.849 25.7764 123.857 25.4385C123.939 22.2549 124.013 19.0712 124.035 15.88C124.035 15.2869 123.894 14.6711 123.716 14.093C123.381 13.0493 122.46 12.7414 121.554 13.3496C120.87 13.8152 120.454 14.4759 120.454 15.3544V20.5654ZM108.865 10.2936H113.33V30.3492H109.845C109.719 29.5908 109.593 28.8099 109.444 27.8939C109.206 28.2468 109.065 28.472 108.917 28.6973C107.758 30.3867 106.116 30.9649 104.177 30.6571C102.52 30.3867 101.525 29.0953 101.302 26.9778C101.235 26.3471 101.205 25.7089 101.205 25.0781C101.19 20.3852 101.205 15.6773 101.205 10.9844V10.2786H105.722V11.097C105.722 15.6323 105.707 20.16 105.737 24.6952C105.737 25.3409 105.804 26.0092 105.915 26.655C106.042 27.3157 106.517 27.556 107.156 27.5109C108.189 27.4283 108.902 26.655 108.902 25.6188V11.1796C108.865 10.8868 108.865 10.6165 108.865 10.2936V10.2936ZM78.1225 10.2786H82.6097V11.1271C82.6097 15.6398 82.5949 20.145 82.6246 24.6426C82.6246 25.2884 82.684 25.9566 82.8177 26.5874C82.9886 27.3307 83.4195 27.571 84.155 27.4734C85.1728 27.3307 85.7894 26.6174 85.7969 25.5737V11.2097V10.3086H90.2618V30.3492H86.7924C86.6661 29.6058 86.5398 28.84 86.3763 27.8714C86.1535 28.2092 86.0272 28.4045 85.9009 28.6072C84.7419 30.3267 83.1149 30.9574 81.1313 30.6496C79.5414 30.4093 78.5682 29.2229 78.271 27.2782C78.1893 26.67 78.1299 26.0693 78.1299 25.4611C78.115 20.588 78.115 15.6923 78.115 10.8192L78.1225 10.2786ZM75.8194 20.9859C75.8045 21.6617 75.76 22.3375 75.7228 23.0133C75.5519 25.0406 75.4702 27.9164 73.8506 29.3956C72.818 30.3267 71.5104 30.6646 70.1583 30.7096C69.5565 30.7246 68.9473 30.7246 68.3456 30.642C65.5002 30.2065 64.1778 28.9376 63.7023 25.7764C63.16 22.1272 63.1154 18.418 63.7617 14.7688C64.4304 10.9919 66.7334 9.65537 70.3143 9.90316C73.6575 10.1434 75.1508 12.3585 75.5445 15.5121C75.76 17.3217 75.864 19.1538 75.8194 20.9859V20.9859ZM71.2727 20.2951C71.2727 19.0111 71.3024 17.7197 71.2578 16.4357C71.2281 15.6923 71.1315 14.9415 70.9755 14.2056C70.7972 13.3571 70.2623 12.9517 69.5937 12.9667C68.9399 12.9817 68.4793 13.3872 68.2416 14.1756C68.1598 14.4684 68.0707 14.7688 68.0707 15.0616C68.0707 17.0739 68.0558 19.0937 68.041 21.1061C68.0261 22.9832 67.7884 24.9505 68.3753 26.7451C68.5536 27.2932 69.0142 27.5935 69.616 27.5935C70.2029 27.5935 70.5892 27.3007 70.8047 26.7751C70.9755 26.3696 71.1241 25.9266 71.1241 25.4911C71.1761 23.7641 71.2727 22.0296 71.2727 20.2951ZM57.1497 16.5183C57.5435 14.5735 57.9149 12.6738 58.3235 10.7667C58.8362 8.34136 59.4082 5.91606 59.9134 3.48326C60.0397 2.89008 60.2774 2.74741 60.8346 2.76243C62.0307 2.80748 63.2491 2.77745 64.527 2.77745C64.1109 4.32423 63.7023 5.79593 63.3011 7.24509C62.0307 11.7953 60.7603 16.3606 59.5048 20.9259C59.4082 21.2788 59.3636 21.6617 59.3636 22.0371C59.3488 24.53 59.3636 27.0154 59.3636 29.5082V30.3192H55.0027C54.9878 30.0939 54.9581 29.8687 54.9581 29.6434C54.9581 28.2318 54.8467 26.8126 54.973 25.416C55.2924 22.0597 54.2375 18.9736 53.3831 15.85C52.2539 11.7202 51.1098 7.57547 49.9805 3.44572C49.9211 3.25049 49.8988 3.04025 49.8394 2.79997H54.2895C55.2256 7.35772 56.1691 11.9155 57.1497 16.5183ZM142.474 21.7518H134.956C135.038 23.2761 135.068 24.7252 135.224 26.1594C135.335 27.158 135.877 27.586 136.732 27.5935C137.623 27.6086 138.143 27.158 138.351 26.1669C138.418 25.844 138.463 25.5211 138.492 25.1908C138.522 24.8979 138.537 24.5826 138.559 24.1621C139.83 24.2297 141.07 24.3047 142.296 24.3573C143.009 26.4973 141.724 29.2454 139.562 30.0939C137.861 30.7697 136.115 30.7697 134.377 30.2516C133.091 29.8687 132.133 29.0427 131.702 27.7737C131.301 26.5874 130.922 25.3484 130.84 24.1095C130.617 21.0535 130.536 17.9674 130.996 14.9039C131.078 14.3933 131.219 13.9053 131.375 13.4097C131.999 11.3673 133.359 10.1134 135.461 9.90316C136.605 9.79053 137.787 9.83558 138.916 10.0308C140.743 10.3537 141.717 11.6827 142.14 13.4247C142.333 14.2432 142.474 15.0841 142.504 15.9176C142.512 17.8323 142.474 19.732 142.474 21.7518ZM138.203 19.1163C138.203 17.607 138.218 16.1879 138.188 14.7613C138.188 14.4234 138.062 14.0705 137.935 13.7476C137.683 13.1169 137.155 12.9442 136.524 12.9442C135.892 12.9442 135.491 13.267 135.335 13.8452C134.86 15.5797 135.016 17.3517 135.03 19.1313C136.167 19.1163 137.2 19.1163 138.203 19.1163V19.1163Z" fill="#050229"/>
<path d="M93.7094 6.45755H89.2891V2.83838H102.483V6.43503H98.0927V30.3201H93.7169L93.7094 6.45755Z" fill="#050229"/>
</svg>
