<svg width="135" height="53" viewBox="0 0 135 53" fill="none" xmlns="http://www.w3.org/2000/svg">
<path d="M132.302 37.7123H122.884V23.8863H120.529V37.7123H111.11V3.15493H120.529V12.827H127.593L132.302 18.3573V37.7123H132.302ZM108.767 23.8863H99.3487V26.6586H108.767V37.7192H94.6464L89.9369 32.189V18.3573L94.6464 12.827H108.767V23.8863ZM87.5859 23.8863H79.3446V26.6586H87.5859V37.7192H74.6423L69.9328 32.189V3.15493H79.3516V12.827H87.593L87.5859 23.8863ZM67.5818 10.0618H58.1631V3.15493H67.5818V10.0618ZM67.5818 37.7123H58.1631V12.827H67.5818V37.7123ZM55.8086 37.7123H27.5725L22.8631 32.1821V12.827H32.2819V26.6515H34.6364V12.827H44.0552V26.6515H46.4097V12.827H55.8286L55.8086 37.7123ZM20.5121 23.8863H12.2801V26.6586H20.5214V37.7192H7.57089L2.86159 32.189V3.15493H12.2801V12.827H20.5214L20.5121 23.8863ZM128.773 10.0618H122.886V0.382812H109.969L104.027 10.0618H93.4702L89.9381 14.2088V10.0618H81.6967V0.382812H55.8145V10.0618H19.3937L13.4575 0.382812H0.506836V33.5651L16.9812 52.9148H33.4558V47.3844L38.1651 52.9148H69.9353V47.3844L74.6448 52.9148H89.9394V47.3844L94.6487 52.9148H124.068L134.664 40.4706V16.974L128.773 10.0618Z" fill="#9147FE"/>
<path d="M111.121 37.7122H120.535V23.8862H122.888V37.7122H132.302V18.3572L127.595 12.8269H120.535V3.14941H111.121V37.7122H111.121ZM69.9353 32.182L74.6411 37.7122H87.5859V26.6514H79.3494V23.8862H87.5859V12.8269H79.3494V3.14941H69.9353V32.182ZM89.9394 32.182L94.6465 37.7122H108.767V26.6514H99.3533V23.8862H108.767V12.8269H94.6465L89.9394 18.3572V32.182ZM58.1679 3.14941H67.582V10.0617H58.1679V3.14941ZM20.5121 12.8269H12.2743V3.14941H2.86035V32.182L7.56733 37.7122H20.5121V26.6514H12.2743V23.8862H20.5121V12.8269ZM22.8656 32.182L27.5713 37.7122H55.8145V12.8269H46.4004V26.6514H44.0459V12.8269H34.6329V26.6514H32.2796V12.8269H22.8656V32.182ZM58.1679 12.8269H67.582V37.7122H58.1679V12.8269Z" fill="white"/>
</svg>
