<svg width="70" height="57" viewBox="0 0 70 57" fill="none" xmlns="http://www.w3.org/2000/svg">
<g clip-path="url(#clip0)">
<path d="M62.2833 14.1505C62.3248 14.7491 62.3248 15.3478 62.3248 15.952C62.3248 34.3623 48.2692 55.5949 22.568 55.5949V55.5839C14.9758 55.5949 7.54131 53.4264 1.1499 49.3377C2.25387 49.4701 3.36338 49.5363 4.47565 49.5391C10.7674 49.5446 16.8794 47.4395 21.8293 43.5633C15.8501 43.4501 10.607 39.5628 8.77532 33.8877C10.8698 34.2905 13.028 34.2078 15.0837 33.6477C8.56504 32.3345 3.87524 26.6235 3.87524 19.9911C3.87524 19.9304 3.87524 19.8724 3.87524 19.8145C5.81756 20.8932 7.9923 21.4919 10.2168 21.5581C4.07722 17.4667 2.1847 9.32235 5.89227 2.95477C12.9864 11.6592 23.4534 16.9508 34.6895 17.5108C33.5634 12.6717 35.1018 7.60079 38.7319 4.19904C44.3597 -1.07601 53.2108 -0.805631 58.501 4.80325C61.6303 4.18801 64.6295 3.04306 67.3742 1.42081C66.3311 4.64599 64.1481 7.38559 61.2319 9.12647C64.0015 8.80092 66.7074 8.06153 69.2557 6.93313C67.3798 9.73619 65.0169 12.1778 62.2833 14.1505Z" fill="#009EFF"/>
</g>
<defs>
<clipPath id="clip0">
<rect width="68.6177" height="56.2819" fill="white" transform="translate(0.873047)"/>
</clipPath>
</defs>
</svg>
