<svg width="128" height="43" viewBox="0 0 128 43" fill="none" xmlns="http://www.w3.org/2000/svg">
<path d="M16.2095 0.240234H17.3362C21.2479 0.326181 25.0959 1.91619 27.8596 4.73093C26.8392 5.78377 25.7975 6.79364 24.7983 7.84648C23.2463 6.42836 21.3755 5.33255 19.3346 4.94579C16.3158 4.30119 13.0631 4.88133 10.5332 6.62174C7.76952 8.4481 5.89869 11.5422 5.49476 14.8511C5.04832 18.1171 5.96247 21.5549 8.06715 24.0903C10.0868 26.5613 13.1694 28.1083 16.3583 28.2157C19.3346 28.3876 22.4385 27.4637 24.6069 25.358C26.3077 23.8755 27.0943 21.6194 27.3494 19.4277C23.8203 19.4277 20.2913 19.4492 16.7622 19.4277V15.0015H31.6225C32.3879 19.75 31.2824 25.1002 27.7108 28.4951C25.3297 30.9016 22.0345 32.3197 18.6756 32.599C15.4229 32.9213 12.0639 32.2982 9.17263 30.7082C5.70736 28.8388 2.94364 25.6803 1.58304 21.9631C0.30748 18.5468 0.28622 14.6792 1.47674 11.2414C2.56097 8.10432 4.64439 5.33255 7.32307 3.39876C9.89545 1.48645 13.0206 0.433613 16.2095 0.240234Z" fill="#4385F4"/>
<path d="M101.46 1.35742H106.009V32.0402C104.5 32.0402 102.969 32.0617 101.46 32.0187C101.481 21.8126 101.46 11.585 101.46 1.35742V1.35742Z" fill="#33A853"/>
<path d="M41.743 11.9938C44.5492 11.4567 47.5893 12.0583 49.9066 13.7557C52.0113 15.2598 53.4782 17.6233 53.9246 20.2016C54.4986 23.1882 53.7758 26.4542 51.8624 28.8177C49.8003 31.4605 46.42 32.8786 43.1248 32.6637C40.106 32.4918 37.1722 30.9663 35.3864 28.4739C33.3668 25.7236 32.8778 21.942 33.9833 18.7191C35.0888 15.2598 38.2139 12.6169 41.743 11.9938V11.9938ZM42.3808 16.0762C41.2327 16.377 40.1698 17.0431 39.4044 17.9885C37.3423 20.4809 37.4698 24.5419 39.7446 26.8624C41.0414 28.1946 42.9973 28.8177 44.8043 28.4524C46.4838 28.1516 47.9507 27.0128 48.7586 25.5088C50.1617 22.9519 49.7578 19.4281 47.6106 17.4299C46.2287 16.1407 44.2091 15.6035 42.3808 16.0762Z" fill="#EA4335"/>
<path d="M64.2749 11.9935C67.485 11.3703 70.9928 12.2728 73.3951 14.5504C77.3069 18.0956 77.7321 24.735 74.3943 28.8175C72.3747 31.3958 69.1007 32.814 65.8693 32.6636C62.7867 32.5776 59.7466 31.0306 57.9183 28.4737C55.8562 25.6589 55.4097 21.7913 56.579 18.5039C57.7482 15.152 60.8096 12.5951 64.2749 11.9935V11.9935ZM64.9126 16.0759C63.7646 16.3767 62.7017 17.0428 61.9363 17.9667C59.8954 20.4162 59.9805 24.4127 62.1702 26.7547C63.467 28.1514 65.4867 28.8389 67.3575 28.4522C69.0157 28.1299 70.5039 27.0126 71.3117 25.5085C72.6936 22.9301 72.2897 19.4063 70.1212 17.4081C68.7393 16.1189 66.7197 15.6032 64.9126 16.0759Z" fill="#FBBC07"/>
<path d="M83.3887 13.2399C85.8335 11.6928 89.0862 11.2631 91.7224 12.5953C92.5515 12.9605 93.2318 13.5836 93.8908 14.2067C93.9121 13.6266 93.8908 13.025 93.9121 12.4234C95.3365 12.4448 96.7609 12.4234 98.2065 12.4448V31.396C98.1852 34.2537 97.4624 37.2833 95.4215 39.3675C93.1893 41.6665 89.7665 42.3756 86.6839 41.9029C83.3887 41.4087 80.5187 38.9807 79.2431 35.9081C80.5187 35.285 81.858 34.7908 83.1761 34.2107C83.9202 35.9726 85.4296 37.4766 87.3217 37.8204C89.2138 38.1642 91.4035 37.6915 92.6365 36.1015C93.9546 34.4685 93.9546 32.2339 93.8908 30.2357C92.9129 31.2026 91.7862 32.062 90.4256 32.3843C87.4705 33.2223 84.2178 32.191 81.9431 30.1712C79.6471 28.1515 78.2864 25.0359 78.414 21.9419C78.4778 18.4396 80.4336 15.0662 83.3887 13.2399V13.2399ZM87.7894 15.9901C86.4926 16.205 85.2808 16.9355 84.4517 17.9454C82.4533 20.3519 82.4533 24.198 84.4729 26.5615C85.6209 27.9581 87.4705 28.7316 89.2563 28.5382C90.9358 28.3664 92.4877 27.292 93.3168 25.8095C94.72 23.2955 94.4861 19.8792 92.594 17.6876C91.4248 16.3339 89.5539 15.6678 87.7894 15.9901V15.9901Z" fill="#4385F4"/>
<path d="M111.471 14.3354C114.022 11.9289 117.955 11.1124 121.229 12.3801C124.333 13.5619 126.31 16.5485 127.309 19.6211C122.696 21.5549 118.104 23.4672 113.491 25.401C114.128 26.6257 115.106 27.743 116.424 28.1942C118.274 28.8603 120.485 28.624 122.037 27.3777C122.653 26.905 123.142 26.2819 123.61 25.6803C124.779 26.4753 125.949 27.2488 127.118 28.0438C125.46 30.5577 122.675 32.3196 119.677 32.599C116.361 33.0072 112.832 31.718 110.684 29.0967C107.155 24.9712 107.495 18.0526 111.471 14.3354V14.3354ZM113.746 18.3104C113.023 19.3633 112.725 20.6524 112.746 21.9202C115.829 20.631 118.912 19.3418 121.994 18.0311C121.484 16.8278 120.251 16.0973 118.997 15.9039C116.977 15.5387 114.872 16.6345 113.746 18.3104V18.3104Z" fill="#EA4335"/>
</svg>
