<svg width="154" height="31" viewBox="0 0 154 31" fill="none" xmlns="http://www.w3.org/2000/svg">
<path d="M10.4188 29.6021H4.67033V15.1189H0.754395V10.4034H4.67018V7.04801C4.67018 3.07188 6.40214 0.220215 12.135 0.220215C13.3475 0.220215 15.2511 0.46722 15.2511 0.46722V4.84578H13.2517C11.2145 4.84578 10.4191 5.47208 10.4191 7.20358V10.4034H15.1748L14.7513 15.1189H10.4189L10.4188 29.6021ZM23.6087 10.0266C23.5249 10.0266 23.4387 10.0297 23.3534 10.0318C18.0232 10.0318 15.5844 14.0841 15.5844 19.8365C15.5844 27.0829 18.7478 29.9831 23.3951 29.9831C26.054 29.9831 27.8009 28.852 28.8627 26.7412V29.6041H34.3302V10.4054H28.8627V13.3579C27.9957 11.4583 26.2 10.0491 23.6087 10.0266ZM24.9989 14.5632C27.2377 14.5632 28.5814 16.1414 28.5814 18.8259L28.5865 21.5678C28.5865 23.3772 27.4767 25.494 24.9989 25.494C21.1896 25.494 21.2914 21.3368 21.2914 19.9523C21.2914 15.2948 23.321 14.5632 24.9989 14.5632ZM36.5383 20.0058C36.5383 17.6728 36.4279 10.0391 46.2683 10.0391C50.2184 10.0391 51.8678 11.3085 51.8678 11.3085L50.5421 15.4642C50.5421 15.4642 48.8948 14.5474 46.7484 14.5474C43.9992 14.5474 42.245 16.1582 42.245 18.9923L42.248 21.0245C42.248 23.7477 43.9406 25.5655 46.754 25.5655C48.7095 25.5655 50.5118 24.6401 50.5118 24.6401L51.8341 28.7091C51.8341 28.7091 50.326 29.9865 46.2959 29.9865C36.9263 29.9865 36.5385 23.1376 36.5385 20.0058H36.5383ZM83.9262 10.0318C89.2566 10.0318 91.7338 14.0841 91.7338 19.8365C91.7338 27.0829 88.5703 29.9831 83.923 29.9831C81.2641 29.9831 79.2986 28.8522 78.2368 26.7412V29.6041L72.838 29.602V0.803961L78.5702 0.298695V13.0978C79.3975 10.8586 82.1163 10.0318 83.9264 10.0318H83.9262ZM82.3192 14.5632C80.0805 14.5632 78.5702 16.1414 78.5702 18.8259L78.5648 21.5678C78.5615 23.3772 79.6107 25.494 82.3192 25.494C86.1285 25.494 86.0267 21.3368 86.0267 19.9523C86.0267 15.2948 83.9973 14.5632 82.3192 14.5632ZM61.8135 10.0477C55.7677 10.0477 52.576 13.3792 52.576 19.2996V20.3995C52.576 28.0837 57.0582 30.062 62.4019 30.062C67.596 30.062 69.947 28.5937 69.947 28.5937L68.8744 24.6836C68.8744 24.6836 66.1088 25.8728 63.0892 25.8728C59.9587 25.8728 58.6124 25.0664 58.2674 22.0259H70.4053V18.889C70.4053 12.4669 66.8231 10.0475 61.8134 10.0475L61.8135 10.0477ZM61.9592 13.9631C64.0519 13.9631 65.408 15.2601 65.3336 18.2681H58.2779C58.4002 15.1022 59.8626 13.9632 61.9592 13.9632V13.9631ZM103.163 10.0213C96.9549 10.0213 93.6864 13.5574 93.6864 19.8943C93.6864 28.5888 99.3205 29.9883 103.174 29.9883C108.815 29.9883 112.568 26.919 112.568 19.9732C112.568 12.7439 108.348 10.0213 103.163 10.0213V10.0213ZM103.085 14.5789C105.815 14.5789 106.897 16.6439 106.897 18.9945V21.0154C106.897 23.8629 105.383 25.5099 103.075 25.5099C100.916 25.5099 99.3987 23.9693 99.3987 21.0154V18.9945C99.3987 15.8441 101.204 14.5789 103.085 14.5789V14.5789ZM123.987 10.0213C117.778 10.0213 114.51 13.5574 114.51 19.8943C114.51 28.5888 120.144 29.9883 123.997 29.9883C129.638 29.9883 133.391 26.919 133.391 19.9732C133.391 12.7439 129.171 10.0213 123.987 10.0213V10.0213ZM123.909 14.5789C126.639 14.5789 127.72 16.6439 127.72 18.9945V21.0154C127.72 23.8629 126.207 25.5099 123.898 25.5099C121.739 25.5099 120.222 23.9693 120.222 21.0154V18.9945C120.222 15.8441 122.028 14.5789 123.909 14.5789V14.5789ZM135.557 29.6021V0.803961L141.306 0.298695V19.601L147.009 10.4034H153.08L147.131 19.9294L153.309 29.6021H147.221L141.306 20.2101V29.6021H135.557Z" fill="#1781FE"/>
</svg>
