<svg width="160" height="39" viewBox="0 0 160 39" fill="none" xmlns="http://www.w3.org/2000/svg">
<path d="M17.385 0.494043C15.3194 0.7266 12.2211 1.6926 10.4583 2.65861C5.72179 5.21673 2.51664 9.20597 0.914071 14.519C0.593556 15.5566 0.219622 18.383 0.237429 19.7068C0.237429 20.8696 0.593556 23.7139 0.807233 24.3937C0.914071 24.7157 1.14555 25.4849 1.34142 26.0753C1.66194 27.077 3.21109 30.2255 3.47819 30.4402C3.53161 30.4938 3.81651 30.8516 4.0836 31.2631C4.74244 32.247 6.46966 34.0001 7.76952 35.0019C8.76668 35.7711 11.5801 37.399 11.9362 37.4169C12.0252 37.4169 12.0431 36.7371 11.9896 35.8426C11.865 33.857 12.2389 31.1557 13.0402 28.4008C13.1827 27.9357 13.2895 27.3275 13.2895 27.0592C13.2895 26.7908 13.3607 26.5046 13.4498 26.4152C13.5388 26.3078 13.699 25.789 13.7881 25.2524C13.8949 24.7157 14.073 23.8928 14.1976 23.4277C14.3757 22.73 14.3579 22.4617 14.1086 21.7104C13.7525 20.5655 13.7347 18.705 14.0908 17.8106C14.9277 15.6818 15.8536 14.8768 17.4206 14.8768C19.3081 14.8768 20.2162 16.3079 19.86 18.705C19.6998 19.7962 19.2546 21.5136 18.9697 22.0502C18.8985 22.2112 18.7739 22.6585 18.7204 23.0341C18.6492 23.4277 18.5068 23.9823 18.4177 24.2864C18.1684 24.984 18.6492 26.3436 19.2902 26.8624C19.8957 27.3454 21.1599 27.4885 22.3173 27.2202C23.1364 27.0413 23.4747 26.8266 24.3294 26.0037C25.3444 25.0019 26.1101 23.8391 26.1101 23.2846C26.1101 23.1236 26.1991 22.9089 26.306 22.8016C26.8045 22.3007 27.0716 18.4009 26.6977 16.7551C26.2882 14.9483 25.0239 13.1773 23.3857 12.1398C21.7475 11.0843 18.3643 10.7802 16.281 11.4958C14.8208 11.9966 13.521 12.8374 12.6841 13.8213C11.9362 14.6979 11.1527 16.129 11.1527 16.6299C11.1527 16.8088 11.0637 17.0413 10.9569 17.1487C10.85 17.256 10.7254 17.9358 10.672 18.6692C10.5829 19.7605 10.6542 20.2614 10.9747 21.3347C11.1883 22.0681 11.5801 22.9268 11.8116 23.2488C12.2923 23.8928 12.2923 24.1433 11.8472 25.8606C11.7225 26.3257 11.5089 26.755 11.3842 26.8087C10.2624 27.238 7.9832 24.5368 7.21753 21.8535C6.93263 20.8338 6.91482 17.2023 7.19972 16.129C7.32436 15.6818 7.53804 15.0736 7.68049 14.7515C7.82294 14.4474 7.94759 14.1433 7.94759 14.0718C7.94759 14.0002 8.30372 13.392 8.74887 12.7301C11.0637 9.22386 14.8208 7.36341 19.5751 7.36341C20.6613 7.36341 21.7831 7.43496 22.0858 7.52441C24.5431 8.29363 25.202 8.54408 26.1635 9.11652C28.0332 10.2435 29.3865 11.782 30.7397 14.358C30.8288 14.519 30.9534 14.9483 31.0068 15.3061C31.0781 15.6639 31.2027 16.0038 31.2917 16.0574C31.3808 16.1111 31.452 17.2739 31.452 18.6513C31.452 21.1379 31.2739 22.1397 30.5261 24.179C29.6892 26.4152 27.5346 28.8838 25.5759 29.8498C24.4541 30.3865 22.3529 30.9768 21.516 30.9768C20.3942 30.9768 18.1862 30.0466 17.5808 29.2953C17.2959 28.9554 17.0288 29.0806 17.0288 29.5636C17.0288 29.7425 16.9576 30.0466 16.8508 30.2255C16.7617 30.3865 16.6015 30.8874 16.5125 31.3346C15.9961 33.696 15.266 35.6101 14.1442 37.399C13.8059 37.9535 14.0908 38.2755 15.0167 38.4008C15.4797 38.4723 16.1029 38.5975 16.3878 38.687C17.1001 38.9195 20.964 38.8838 22.2639 38.6512C23.4391 38.4365 25.3444 37.8999 26.1991 37.5421C31.5766 35.3239 35.6543 30.8158 37.4171 25.0735C38.3609 22.0145 38.4143 18.4546 37.5596 14.8768C37.2747 13.714 37.1856 13.4457 36.42 11.6568C35.316 9.04497 32.8231 5.98596 30.2946 4.10761C28.1222 2.49761 25.9854 1.56738 22.6556 0.762378C21.7297 0.54771 18.4355 0.368821 17.385 0.494043V0.494043ZM64.8746 6.95196C64.1801 7.05929 63.0761 8.20419 62.7912 9.09864C62.4885 10.0825 62.7912 11.138 63.6459 11.9609C65.5334 13.8034 68.8098 12.0682 68.4002 9.42064C68.1509 7.73907 66.6196 6.66574 64.8746 6.95196ZM45.4656 8.00741C45.3054 8.1863 45.3054 29.7604 45.4834 30.0108C45.5725 30.154 46.3381 30.2076 47.8339 30.1897L50.0597 30.1718L50.1487 26.5404C50.2199 23.5887 50.2911 22.8731 50.5048 22.7479C50.6473 22.6585 51.8581 22.569 53.1936 22.569C56.1138 22.569 57.3425 22.3544 58.6779 21.6388C60.423 20.6907 61.4379 19.3311 61.9899 17.1666C62.3282 15.807 62.3282 14.8231 61.9721 13.4278C61.6516 12.1755 61.5092 11.8714 60.7435 10.8518C59.7997 9.58164 58.8382 8.88397 57.2712 8.32941C56.3987 8.04319 55.6687 7.98952 50.95 7.93585C48.0119 7.90008 45.5368 7.93585 45.4656 8.00741V8.00741ZM55.2413 12.4618C56.4343 12.8374 57.0219 13.3741 57.289 14.3401C57.6274 15.6102 57.3781 16.7909 56.6302 17.5064C55.8111 18.2757 55.0811 18.4546 52.695 18.4546C51.128 18.4546 50.6473 18.4009 50.4336 18.1683C50.2021 17.9537 50.1487 17.4349 50.1487 15.3956C50.1487 12.1755 50.1309 12.1934 52.606 12.1934C53.6743 12.1934 54.7071 12.3008 55.2413 12.4618ZM86.4737 11.4063C86.4737 12.6407 86.3847 13.8034 86.2956 14.0002C86.171 14.2328 85.9217 14.3401 85.4943 14.3401C85.1738 14.3401 84.8711 14.4117 84.8355 14.519C84.8177 14.6084 84.8177 15.2346 84.8711 15.8964C84.9601 17.0771 84.978 17.095 85.5121 17.2202C85.8148 17.2739 86.1532 17.3812 86.26 17.4528C86.4203 17.5422 86.4737 18.9555 86.4737 22.5332C86.4737 27.3454 86.4915 27.5243 86.8832 28.2398C87.7023 29.7604 88.9844 30.2971 91.5841 30.2255L93.3291 30.1718L93.3826 28.4366L93.436 26.6835H92.9908C92.3142 26.6835 91.317 26.1468 91.2102 25.7175C91.1568 25.5028 91.1033 23.6066 91.1033 21.4778C91.1033 18.544 91.1568 17.5601 91.3348 17.417C91.4595 17.3097 91.9581 17.2023 92.4388 17.1666L93.3291 17.1129V14.4295L92.3498 14.3759C91.8156 14.3401 91.317 14.2149 91.2458 14.1075C91.1746 13.9823 91.1033 12.8195 91.1033 11.5136V9.1523H86.4737V11.4063ZM152.66 9.25964C152.589 9.33119 152.535 10.4582 152.535 11.7641C152.535 14.3043 152.518 14.3401 151.538 14.3401C151.093 14.3401 151.093 14.358 151.146 15.7176C151.2 17.0771 151.218 17.1129 151.681 17.1666C151.93 17.2023 152.233 17.3276 152.322 17.4349C152.428 17.5601 152.535 19.7247 152.589 22.4796C152.642 25.1271 152.731 27.5422 152.802 27.8284C153.016 28.6155 154.12 29.6173 155.171 29.9572C156.346 30.3507 159.337 30.3865 159.64 30.0108C159.783 29.8498 159.836 29.2058 159.8 28.2756L159.747 26.7729L159.124 26.6656C158.447 26.5583 157.681 26.2005 157.486 25.8964C157.414 25.789 157.343 23.8391 157.343 21.5672C157.343 16.8982 157.236 17.2023 158.785 17.2023C159.8 17.2023 159.889 17.0234 159.8 15.3956L159.747 14.4295L158.589 14.3401L157.432 14.2507L157.343 11.7462L157.254 9.24175L155.01 9.18808C153.782 9.17019 152.731 9.20597 152.66 9.25964V9.25964ZM77.6595 13.9108C76.787 14.1433 75.7721 14.7337 75.0954 15.4313C74.2763 16.29 74.0626 16.2363 73.9736 15.1451L73.9202 14.4295H69.4686V30.1718L71.7122 30.2076C73.9202 30.2613 73.9736 30.2434 74.0805 29.8498C74.1339 29.6352 74.1873 27.3633 74.1873 24.7873C74.1873 19.6889 74.2051 19.5458 75.2557 18.544C75.7186 18.0968 75.9679 18.0073 76.9651 17.9537L78.1225 17.8821L78.8169 18.6156C79.636 19.4742 79.547 18.6513 79.6182 26.0574C79.636 28.0252 79.6538 29.7604 79.6716 29.9393C79.7073 30.1897 79.9922 30.2255 81.9865 30.1897L84.2479 30.1718V17.6138L83.7315 16.5941C82.8412 14.8231 81.4701 13.9823 79.3689 13.875C78.6211 13.8571 77.8554 13.8571 77.6595 13.9108V13.9108ZM99.9175 13.9108C97.9944 14.4295 97.0685 14.9483 95.8755 16.129C94.2729 17.7569 93.5428 19.6531 93.5428 22.2112C93.5606 26.7014 96.3562 30.0287 100.487 30.4223C104.013 30.7622 106.737 29.7246 108.482 27.3812C108.732 27.0413 109.266 25.95 109.266 25.7533C109.266 25.6817 108.233 25.6102 106.987 25.6102H104.707L104.173 26.1647C103.55 26.8087 102.677 27.2202 101.876 27.2202C101.075 27.2202 99.8463 26.6477 99.2765 26.0395C98.8491 25.5565 98.2259 24.1611 98.2259 23.6781C98.2259 23.5171 99.5258 23.4635 103.71 23.4635C106.72 23.4635 109.266 23.3919 109.39 23.3204C109.658 23.1415 109.408 20.2971 109.017 19.2596C108.215 17.095 106.702 15.2703 105.17 14.6263C104.725 14.4474 104.209 14.2149 104.031 14.1254C103.657 13.9287 100.487 13.7677 99.9175 13.9108V13.9108ZM103.39 17.8285C104.084 18.3115 104.69 19.4563 104.601 20.1003C104.547 20.5118 104.512 20.5118 101.502 20.5655C98.03 20.6191 98.0122 20.6012 98.5642 19.3132C98.956 18.4188 99.7394 17.6138 100.469 17.3812C101.306 17.1129 102.66 17.3276 103.39 17.8285ZM126.271 13.9108C124.205 14.4653 122.763 15.3777 121.641 16.7909C121.196 17.3633 120.84 17.9 120.84 18.0073C120.84 18.0968 120.715 18.4188 120.555 18.7229C120.395 19.0091 120.163 19.9036 120.039 20.7086C119.415 24.5368 121.125 28.1146 124.33 29.7246L125.559 30.3507H128.141C130.812 30.3507 131.043 30.2971 132.681 29.4205C133.874 28.7765 135.833 26.272 135.53 25.7712C135.459 25.6817 134.444 25.6102 133.251 25.6102H131.061L130.616 26.1289C128.835 28.1504 125.505 27.1128 124.793 24.3043C124.686 23.9286 124.686 23.6066 124.775 23.535C124.864 23.4814 127.411 23.4456 130.455 23.4635C134.8 23.4635 135.975 23.4277 135.993 23.2488C136.153 21.0127 135.085 17.7032 133.75 16.2721C133.002 15.4671 131.702 14.5727 131.061 14.4117C130.776 14.3401 130.455 14.2149 130.331 14.1254C130.081 13.9287 126.823 13.7677 126.271 13.9108V13.9108ZM129.049 17.3991C129.85 17.6853 130.776 18.6871 130.918 19.4563C131.132 20.6191 131.15 20.6191 127.838 20.5655C124.864 20.5118 124.846 20.5118 124.793 20.1003C124.722 19.5995 125.345 18.3651 125.879 17.9C126.645 17.256 127.98 17.0413 129.049 17.3991V17.3991ZM141.762 13.9108C138.112 14.7873 136.794 16.0932 136.777 18.8123C136.777 21.7461 138.237 22.9805 142.564 23.7497C145.537 24.2685 146.392 24.7336 146.357 25.8606C146.339 26.6656 145.787 27.1844 144.683 27.4169C143.294 27.7211 142.208 27.3812 141.335 26.3973L140.641 25.6102H138.486C136.741 25.6102 136.332 25.6638 136.332 25.8606C136.332 26.3794 137.044 27.7389 137.631 28.4187C138.183 29.0091 138.611 29.2953 140.285 30.1003C140.445 30.1897 141.317 30.3328 142.19 30.4402C143.81 30.637 146.624 30.4581 147.336 30.1003C147.496 30.0287 147.959 29.7962 148.351 29.6173C149.366 29.1343 150.327 28.0431 150.683 27.0055C151.075 25.8248 150.968 24.179 150.416 23.0341C149.758 21.6925 148.013 20.7265 145.413 20.2613C142.065 19.671 142.012 19.6531 141.478 19.1343C140.837 18.4725 140.837 18.2399 141.478 17.5243C141.994 16.9519 142.03 16.934 143.454 16.934C144.879 16.934 144.914 16.9519 145.431 17.5243C145.715 17.8463 145.947 18.222 145.947 18.3651C145.947 18.5798 146.321 18.6335 148.173 18.6335C150.63 18.6335 150.559 18.6871 150.131 17.417C149.348 15.163 147.336 14.0181 143.988 13.8929C142.955 13.8571 141.958 13.8571 141.762 13.9108V13.9108ZM118.08 14.2864C117.297 14.5548 116.21 15.4492 115.872 16.0932C115.534 16.7372 115.231 16.4689 115.142 15.3956L115.053 14.4295H110.601L110.548 21.9429C110.53 26.0753 110.548 29.6352 110.601 29.8677C110.69 30.2613 110.744 30.2613 112.881 30.2255C114.109 30.2076 115.106 30.1003 115.178 29.993C115.249 29.9035 115.32 28.0073 115.32 25.789C115.32 22.2828 115.356 21.6567 115.658 20.8696C116.282 19.2417 117.617 18.2757 119.291 18.2757C119.754 18.2757 119.95 18.1862 120.003 17.9537C120.128 17.4349 120.146 15.0199 120.039 14.4832C119.932 14.0539 119.843 13.9823 119.362 14.0002C119.042 14.0181 118.472 14.1433 118.08 14.2864V14.2864ZM63.2364 14.5548C63.183 14.68 63.1651 18.2041 63.183 22.3901L63.2364 29.993L65.3553 30.0824C66.6374 30.1361 67.5633 30.1003 67.7058 29.993C67.9016 29.8498 67.9551 28.3293 67.9551 22.247C67.9729 18.0968 67.9194 14.6084 67.866 14.519C67.688 14.2507 63.3254 14.2864 63.2364 14.5548V14.5548Z" fill="#E60023"/>
</svg>
