<svg width="500" height="91" viewBox="0 0 500 91" fill="none" xmlns="http://www.w3.org/2000/svg">
<path d="M75.8381 46.3822C75.8381 43.8309 77.9064 41.7627 80.4577 41.7627H121.11C123.661 41.7627 125.729 43.8309 125.729 46.3822V46.3822C125.729 48.9335 123.661 51.0018 121.11 51.0018H80.4577C77.9064 51.0018 75.8381 48.9335 75.8381 46.3822V46.3822Z" fill="#FFA800"/>
<path d="M86.9252 34.9259C86.9252 32.3746 88.9934 30.3064 91.5447 30.3064H110.023C112.574 30.3064 114.642 32.3746 114.642 34.9259V34.9259C114.642 37.4772 112.574 39.5455 110.023 39.5455H91.5447C88.9934 39.5455 86.9252 37.4772 86.9252 34.9259V34.9259Z" fill="#FFCC68"/>
<path d="M86.9252 80.7515C86.9252 78.2003 88.9934 76.132 91.5447 76.132H110.023C112.574 76.132 114.642 78.2003 114.642 80.7515V80.7515C114.642 83.3028 112.574 85.3711 110.023 85.3711H91.5447C88.9934 85.3711 86.9252 83.3028 86.9252 80.7515V80.7515Z" fill="#FFCC68"/>
<path d="M68.0776 57.8387C68.0776 55.2874 70.1459 53.2191 72.6972 53.2191H128.501C131.052 53.2191 133.121 55.2874 133.121 57.8387V57.8387C133.121 60.39 131.052 62.4582 128.501 62.4582H72.6972C70.1459 62.4582 68.0776 60.39 68.0776 57.8387V57.8387Z" fill="#FFCC68"/>
<path d="M75.8381 69.4798C75.8381 67.0305 77.8236 65.045 80.2729 65.045H121.294C123.744 65.045 125.729 67.0305 125.729 69.4798V69.4798C125.729 71.929 123.744 73.9145 121.294 73.9145H80.2729C77.8236 73.9145 75.8381 71.929 75.8381 69.4798V69.4798Z" fill="#FFCC68"/>
<path d="M118.25 47.0338C119.129 50.2062 117.269 53.4906 114.097 54.3696C110.924 55.2486 107.64 53.3893 106.761 50.2169C105.882 47.0444 107.741 43.7601 110.914 42.8811C114.086 42.0021 117.371 43.8613 118.25 47.0338Z" fill="black"/>
<path d="M129.369 58.0189C131.405 65.3664 127.099 72.973 119.751 75.0088C112.404 77.0445 104.797 72.7385 102.761 65.391C101.035 59.159 105.874 54.1304 109.233 49.5175C110.196 48.9721 111.264 48.7102 112.379 48.4012C113.332 48.1372 114.609 47.8807 115.557 47.8228C121.737 50.5533 127.597 51.6241 129.369 58.0189Z" fill="#FFCC68"/>
<path d="M105.556 64.6147C105.246 63.4953 105.902 62.3364 107.022 62.0262L123.753 57.3905C124.872 57.0804 126.031 57.7364 126.341 58.8559V58.8559C126.651 59.9753 125.995 61.1342 124.876 61.4443L108.145 66.08C107.025 66.3902 105.866 65.7341 105.556 64.6147V64.6147Z" fill="black"/>
<path d="M105.307 57.7001C104.997 56.5807 105.653 55.4218 106.772 55.1116L120.334 51.3541C121.453 51.0439 122.612 51.6999 122.922 52.8194V52.8194C123.233 53.9388 122.577 55.0977 121.457 55.4078L107.895 59.1654C106.776 59.4756 105.617 58.8195 105.307 57.7001V57.7001Z" fill="black"/>
<path d="M106.616 71.3053C106.306 70.1858 106.962 69.0269 108.081 68.7168L126.139 63.7135C127.258 63.4034 128.417 64.0594 128.727 65.1788V65.1788C129.038 66.2982 128.382 67.4571 127.262 67.7673L109.204 72.7706C108.085 73.0807 106.926 72.4247 106.616 71.3053V71.3053Z" fill="black"/>
<path d="M133.214 55.1694C136.054 57.9612 136.092 62.5263 133.301 65.3658C130.509 68.2054 125.944 68.2442 123.104 65.4524C120.265 62.6606 115.432 47.7985 115.432 47.7985C115.432 47.7985 130.374 52.3776 133.214 55.1694Z" fill="#EAEAEA"/>
<path d="M97.7527 65.0473C96.7547 68.9024 99.0708 72.8365 102.926 73.8344C106.781 74.8324 110.715 72.5163 111.713 68.6612C112.711 64.8062 109.206 49.5765 109.206 49.5765C109.206 49.5765 98.7506 61.1923 97.7527 65.0473Z" fill="#EAEAEA"/>
<path fill-rule="evenodd" clip-rule="evenodd" d="M103.902 43.2802C103.67 42.7895 103.881 42.2042 104.371 41.973C105.167 41.598 105.953 41.428 106.715 41.5462C107.489 41.6663 108.116 42.0653 108.62 42.6044C109.572 43.623 110.198 45.2767 110.741 47.0597C110.899 47.5785 110.607 48.1274 110.088 48.2855C109.569 48.4436 109.02 48.1512 108.862 47.6323C108.309 45.8173 107.786 44.5894 107.185 43.9455C106.912 43.6534 106.662 43.5259 106.413 43.4873C106.152 43.4467 105.77 43.4856 105.209 43.7499C104.718 43.9812 104.133 43.7708 103.902 43.2802Z" fill="black"/>
<path fill-rule="evenodd" clip-rule="evenodd" d="M116.998 39.7712C116.953 39.2306 116.478 38.829 115.938 38.8741C115.061 38.9472 114.296 39.1928 113.695 39.676C113.085 40.167 112.741 40.8264 112.574 41.5452C112.259 42.9032 112.544 44.6484 112.964 46.4642C113.087 46.9926 113.615 47.3217 114.143 47.1992C114.671 47.0767 115.001 46.5491 114.878 46.0206C114.45 44.1722 114.288 42.8474 114.487 41.9889C114.578 41.5995 114.73 41.3642 114.927 41.2063C115.132 41.0406 115.483 40.8832 116.101 40.8316C116.641 40.7865 117.043 40.3118 116.998 39.7712Z" fill="black"/>
<path d="M464.403 44.496C464.403 45.9165 465.28 47.0028 467.035 47.7549C468.79 48.4234 471.589 49.1336 475.433 49.8857C480.363 50.8884 484.458 52.0165 487.717 53.2699C490.975 54.4397 493.816 56.4452 496.24 59.2862C498.747 62.0437 500 65.8875 500 70.8176C500 75.0792 498.705 78.7559 496.114 81.8476C493.524 84.8558 490.098 87.1537 485.836 88.7414C481.575 90.2454 476.979 90.9975 472.049 90.9975C465.281 90.9975 459.515 89.7859 454.752 87.3626C449.989 84.8558 446.396 81.1791 443.973 76.3326L458.637 68.8122C460.643 74.16 465.113 76.834 472.049 76.834C474.89 76.834 477.355 76.3326 479.444 75.3299C481.617 74.2436 482.703 72.7395 482.703 70.8176C482.703 69.1464 481.7 67.893 479.695 67.0574C477.773 66.2218 474.681 65.3444 470.419 64.4252C465.573 63.3389 461.52 62.2109 458.261 61.041C455.003 59.7876 452.203 57.9075 449.864 55.4007C447.524 52.8103 446.354 49.3843 446.354 45.1227C446.354 41.0283 447.524 37.4769 449.864 34.4687C452.203 31.377 455.337 29.0373 459.264 27.4497C463.275 25.862 467.62 25.0682 472.3 25.0682C477.815 25.0682 482.786 26.1962 487.215 28.4524C491.644 30.7085 495.112 33.9674 497.618 38.229L483.079 45.3734C482.076 43.2844 480.697 41.7385 478.943 40.7358C477.271 39.7331 475.057 39.2317 472.3 39.2317C469.876 39.2317 467.954 39.7331 466.534 40.7358C465.113 41.655 464.403 42.9084 464.403 44.496Z" fill="black"/>
<path d="M407.439 25.0682C413.539 25.0682 418.97 26.5305 423.733 29.4551C428.579 32.3797 432.34 36.3489 435.014 41.3625C437.688 46.3761 439.025 51.9329 439.025 58.0328C439.025 60.3725 438.857 62.5033 438.523 64.4252H392.147C393.735 68.269 395.865 71.1518 398.539 73.0737C401.213 74.9121 404.681 75.8312 408.943 75.8312C411.533 75.8312 414.04 75.2881 416.463 74.2018C418.97 73.1155 420.934 71.6532 422.354 69.8149L435.891 77.8367C432.966 82.0983 429.164 85.3572 424.485 87.6133C419.889 89.8694 414.583 90.9975 408.567 90.9975C401.798 90.9975 395.824 89.577 390.643 86.7359C385.462 83.8113 381.451 79.8422 378.61 74.8285C375.769 69.8149 374.349 64.2163 374.349 58.0328C374.349 51.8494 375.727 46.2508 378.485 41.2372C381.326 36.2235 385.253 32.2962 390.267 29.4551C395.281 26.5305 401.004 25.0682 407.439 25.0682ZM422.229 50.5124C421.644 47.3371 419.973 44.872 417.215 43.1173C414.541 41.3625 411.241 40.4851 407.313 40.4851C403.219 40.4851 399.667 41.4878 396.659 43.4933C393.651 45.4152 392.064 47.7549 391.896 50.5124H422.229Z" fill="black"/>
<path d="M336.812 25.0682C342.912 25.0682 348.343 26.5305 353.106 29.4551C357.953 32.3797 361.713 36.3489 364.387 41.3625C367.061 46.3761 368.398 51.9329 368.398 58.0328C368.398 60.3725 368.231 62.5033 367.897 64.4252H321.52C323.108 68.269 325.239 71.1518 327.913 73.0737C330.587 74.9121 334.055 75.8312 338.316 75.8312C340.907 75.8312 343.413 75.2881 345.837 74.2018C348.343 73.1155 350.307 71.6532 351.728 69.8149L365.264 77.8367C362.34 82.0983 358.538 85.3572 353.858 87.6133C349.263 89.8694 343.956 90.9975 337.94 90.9975C331.172 90.9975 325.197 89.577 320.016 86.7359C314.836 83.8113 310.825 79.8422 307.984 74.8285C305.143 69.8149 303.722 64.2163 303.722 58.0328C303.722 51.8494 305.101 46.2508 307.858 41.2372C310.699 36.2235 314.627 32.2962 319.64 29.4551C324.654 26.5305 330.378 25.0682 336.812 25.0682ZM351.602 50.5124C351.017 47.3371 349.346 44.872 346.589 43.1173C343.915 41.3625 340.614 40.4851 336.687 40.4851C332.592 40.4851 329.041 41.4878 326.033 43.4933C323.025 45.4152 321.437 47.7549 321.27 50.5124H351.602Z" fill="black"/>
<path d="M290.494 42.3652C293.167 44.872 295.256 47.8385 296.761 51.2644C298.265 54.6904 299.017 58.3253 299.017 62.1691C299.017 67.0156 297.847 71.5279 295.507 75.7059C293.167 79.8839 289.992 83.1846 285.981 85.6079C282.054 88.0311 277.751 89.2427 273.071 89.2427H251.262V89.3681H232.461V1.62943H271.066C275.494 1.62943 279.589 2.79927 283.349 5.13897C287.109 7.39511 290.076 10.4869 292.248 14.4142C294.504 18.258 295.633 22.3942 295.633 26.823C295.633 29.5805 295.173 32.338 294.254 35.0955C293.418 37.7694 292.165 40.1927 290.494 42.3652ZM251.262 19.5532V35.7222L271.066 35.5968C272.904 35.5968 274.575 34.8448 276.079 33.3407C277.583 31.753 278.335 29.8311 278.335 27.575C278.335 25.2353 277.583 23.3134 276.079 21.8093C274.575 20.3052 272.904 19.5532 271.066 19.5532H251.262ZM273.071 71.319C275.244 71.319 277.124 70.3998 278.711 68.5615C280.299 66.7232 281.093 64.5506 281.093 62.0438C281.093 59.5369 280.299 57.3644 278.711 55.526C277.124 53.6877 275.244 52.7685 273.071 52.7685H251.262V71.319H273.071Z" fill="black"/>
<path d="M211.167 67.0574C211.167 69.3971 211.794 71.0265 213.048 71.9457C214.385 72.8649 216.39 73.3245 219.064 73.3245C220.735 73.3245 222.573 73.1991 224.579 72.9484V89.3681C220.401 89.7859 216.933 89.9948 214.176 89.9948C207.157 89.9948 201.892 88.4489 198.383 85.3572C194.957 82.1819 193.244 76.458 193.244 68.1855V42.6159H182.464V26.6976H193.244V12.1581L211.167 6.14172V26.6976H224.328V42.6159H211.167V67.0574Z" fill="black"/>
<path d="M176.648 25.4442L175.395 42.3652C174.81 42.1146 173.849 41.9892 172.512 41.9892C167.415 41.9892 163.236 43.4515 159.978 46.3761C156.802 49.2172 155.215 52.9774 155.215 57.6568V89.3681H137.291V26.6976H155.215V36.8502C156.719 33.5914 159.142 30.8757 162.484 28.7031C165.827 26.5305 169.88 25.4442 174.642 25.4442H176.648Z" fill="black"/>
<path d="M34.3434 90.9975C25.6531 90.9975 18.3416 89.0756 12.4088 85.2318C6.55951 81.3881 2.42326 76.1655 0 69.5642L15.9183 60.289C17.5895 64.467 19.9292 67.5588 22.9374 69.5642C26.0291 71.5697 29.9983 72.5724 34.8448 72.5724C38.7721 72.5724 41.7803 71.6532 43.8693 69.8149C46.0419 67.9766 47.1282 65.9293 47.1282 63.6732C47.1282 62.002 46.6268 60.5815 45.6241 59.4116C44.6214 58.2418 42.9084 57.1555 40.4851 56.1527C38.0619 55.0665 34.5523 53.8548 29.9565 52.5179C21.9347 50.1782 15.5423 47.0029 10.7793 42.9919C6.01637 38.981 3.63489 33.2571 3.63489 25.8202C3.63489 20.5559 4.93008 16.0019 7.52046 12.1581C10.1944 8.23072 13.7039 5.22254 18.0491 3.13353C22.4778 1.04451 27.2408 0 32.338 0C39.4406 0 45.6659 1.71299 51.0138 5.13898C56.3616 8.48141 60.5397 13.2444 63.5478 19.4278L47.2535 28.7031C45.6659 25.1935 43.6604 22.6449 41.2372 21.0573C38.8139 19.3861 35.8475 18.5505 32.338 18.5505C29.664 18.5505 27.3661 19.3025 25.4442 20.8066C23.5223 22.2271 22.5614 23.8983 22.5614 25.8202C22.5614 27.4079 22.9374 28.7866 23.6894 29.9565C24.525 31.0428 25.9874 32.0873 28.0764 33.09C30.2489 34.0927 33.4242 35.2208 37.6023 36.4742C43.2008 38.229 48.0056 40.1927 52.0165 42.3652C56.111 44.4543 59.4534 47.3371 62.0438 51.0138C64.7177 54.6904 66.0547 59.2863 66.0547 64.8013C66.0547 70.0656 64.6759 74.7032 61.9184 78.7141C59.1609 82.6415 55.3589 85.6914 50.5124 87.864C45.7494 89.953 40.3598 90.9975 34.3434 90.9975Z" fill="black"/>
</svg>
